<?xml version="1.0" standalone="no"?>
<!DOCTYPE svg PUBLIC "-//W3C//DTD SVG 20010904//EN"
 "http://www.w3.org/TR/2001/REC-SVG-20010904/DTD/svg10.dtd">
<svg version="1.0" xmlns="http://www.w3.org/2000/svg"
 width="704.000000pt" height="704.000000pt" viewBox="0 0 704.000000 704.000000"
 preserveAspectRatio="xMidYMid meet">
<metadata>
Created by potrace 1.14, written by Peter Selinger 2001-2017
</metadata>
<g transform="translate(0.000000,704.000000) scale(0.100000,-0.100000)"
fill="#000000" stroke="none">
<path d="M3276 6963 c-2 -2 -43 -5 -91 -8 -49 -2 -110 -7 -135 -10 -57 -6
-124 -12 -220 -20 -41 -3 -91 -8 -110 -10 -19 -3 -51 -7 -70 -9 -110 -14 -136
-18 -150 -21 -8 -3 -33 -7 -55 -10 -140 -21 -385 -103 -485 -163 -25 -15 -56
-33 -70 -39 -14 -7 -38 -22 -55 -33 -16 -11 -37 -23 -45 -27 -80 -41 -158 -96
-174 -124 -33 -55 -18 -139 33 -181 25 -21 78 -36 114 -31 30 4 40 9 202 105
133 79 200 113 282 144 62 23 238 66 323 79 25 4 56 8 70 10 33 5 126 16 170
20 19 1 73 6 120 10 47 4 98 8 114 10 152 19 448 25 631 12 50 -3 90 -6 90 -7
0 -1 14 -3 30 -4 32 -4 108 -14 165 -22 19 -3 53 -9 75 -14 22 -5 55 -12 74
-15 19 -3 38 -8 41 -10 4 -3 25 -7 46 -11 21 -3 67 -15 102 -26 36 -11 72 -21
81 -23 9 -2 54 -16 101 -30 148 -47 221 -30 260 57 27 61 8 139 -43 172 -18
12 -244 83 -320 101 -10 2 -27 7 -37 10 -10 3 -29 8 -42 11 -13 3 -39 9 -58
14 -79 19 -234 49 -285 55 -16 2 -46 7 -65 10 -40 6 -97 12 -220 21 -91 7
-389 12 -394 7z"/>
<path d="M3177 6374 c-1 -1 -51 -5 -112 -8 -123 -7 -152 -9 -300 -31 -245 -35
-543 -117 -750 -207 -146 -64 -302 -145 -382 -199 -23 -16 -44 -29 -48 -29 -3
0 -11 -5 -18 -10 -7 -6 -37 -29 -67 -51 -176 -128 -334 -277 -431 -409 -27
-36 -52 -70 -56 -75 -78 -102 -69 -211 21 -261 70 -40 148 -14 197 64 16 26
37 58 46 71 10 13 28 37 40 54 51 69 201 212 308 293 104 79 346 224 415 250
8 3 29 12 45 19 143 67 447 160 620 189 43 8 95 16 130 20 17 3 46 7 65 10 19
3 64 8 98 11 35 3 68 7 73 11 5 3 9 1 9 -5 0 -6 11 -7 28 -2 28 8 348 6 439
-2 91 -9 177 -19 198 -24 11 -2 34 -6 50 -8 40 -4 96 -15 116 -21 9 -2 32 -7
50 -9 34 -5 154 -36 284 -74 92 -26 318 -117 422 -169 215 -109 371 -219 463
-327 44 -53 75 -71 124 -74 78 -4 143 50 147 120 3 57 0 74 -18 99 -34 46
-191 195 -247 235 -31 22 -71 51 -88 65 -18 14 -33 24 -35 22 -3 -2 -36 16
-83 47 -26 18 -248 127 -310 154 -211 89 -541 184 -740 212 -14 2 -56 8 -95
14 -156 23 -281 32 -468 35 -76 1 -139 1 -140 0z"/>
<path d="M3200 5801 c0 -3 -17 -6 -38 -7 -43 -1 -135 -11 -172 -20 -14 -3 -34
-7 -45 -9 -11 -1 -38 -6 -60 -10 -56 -10 -258 -69 -330 -96 -33 -13 -62 -24
-65 -24 -76 -19 -445 -218 -458 -247 -2 -5 -8 -8 -13 -8 -10 0 -146 -101 -209
-154 -19 -17 -87 -82 -150 -146 -184 -183 -319 -370 -440 -603 -58 -114 -145
-320 -155 -367 -2 -8 -14 -55 -28 -105 -30 -106 -49 -200 -73 -360 -3 -22 -7
-135 -9 -251 -4 -196 -2 -214 16 -252 21 -42 82 -82 127 -82 52 0 115 43 134
90 5 14 9 54 8 90 -6 242 4 364 46 580 31 159 110 376 199 544 44 83 149 254
164 266 3 3 26 32 50 64 144 194 413 426 621 537 25 13 47 27 50 30 7 9 200
99 211 99 5 0 17 4 27 9 35 18 81 35 122 46 3 1 12 5 20 8 17 7 123 34 161 41
13 2 24 5 24 6 0 2 92 18 205 35 127 20 521 20 589 1 9 -3 36 -7 61 -10 25 -3
56 -8 70 -11 23 -4 37 -7 95 -20 223 -47 500 -185 700 -347 83 -67 306 -300
357 -373 4 -5 20 -26 36 -45 16 -19 77 -102 137 -185 215 -297 293 -394 389
-484 122 -116 284 -201 381 -201 37 0 88 30 112 66 9 15 18 48 19 73 3 76 -37
125 -122 149 -48 14 -144 75 -194 124 -68 66 -149 165 -264 323 -64 88 -120
165 -124 170 -4 6 -42 55 -84 111 -42 56 -83 108 -90 115 -7 8 -37 44 -67 79
-322 383 -753 642 -1208 726 -13 2 -35 6 -50 9 -16 3 -50 8 -78 11 -27 3 -61
8 -75 11 -35 8 -530 12 -530 4z"/>
<path d="M5505 5373 c-46 -22 -78 -75 -78 -128 0 -39 10 -60 74 -157 41 -62
77 -114 82 -116 4 -2 7 -8 7 -13 0 -5 17 -37 38 -71 21 -35 62 -110 91 -168
30 -58 61 -113 70 -124 43 -49 119 -61 179 -29 41 22 75 90 69 136 -13 96
-320 616 -391 663 -33 21 -104 25 -141 7z"/>
<path d="M3228 5224 c-2 -2 -34 -6 -71 -9 -38 -4 -76 -8 -85 -10 -136 -29
-184 -42 -282 -74 -544 -183 -969 -605 -1166 -1161 -19 -54 -17 -49 -49 -175
-13 -55 -27 -122 -30 -150 -4 -27 -10 -77 -14 -110 -8 -73 -7 -311 3 -380 4
-27 9 -66 12 -85 11 -76 47 -212 93 -355 48 -149 59 -187 67 -235 2 -14 7 -41
11 -60 12 -64 10 -234 -3 -305 -14 -73 -44 -155 -78 -215 -56 -100 -171 -212
-261 -255 -16 -8 -37 -19 -45 -23 -8 -5 -32 -17 -53 -27 -135 -66 -98 -261 51
-270 26 -1 54 1 62 6 8 4 49 24 90 44 218 106 397 311 476 542 33 99 39 123
51 223 11 91 4 324 -10 347 -3 5 -8 28 -11 53 -7 53 -41 172 -90 322 -19 57
-37 115 -40 131 -4 15 -9 39 -12 55 -22 102 -31 216 -29 348 1 83 4 155 7 160
3 5 9 34 12 64 8 64 50 226 72 278 9 21 17 42 18 47 11 43 81 181 132 261 73
115 165 227 258 313 21 20 44 41 50 46 89 83 373 255 421 255 8 0 15 5 15 10
0 6 3 9 8 8 4 -1 43 10 87 25 107 35 245 65 341 73 74 6 248 6 304 0 248 -26
522 -121 706 -245 25 -17 47 -31 49 -31 12 0 178 -144 241 -208 65 -66 194
-233 194 -250 0 -7 3 -12 8 -12 4 0 12 -10 18 -23 5 -12 24 -49 42 -82 17 -33
47 -94 67 -135 27 -57 46 -84 82 -112 27 -20 57 -44 68 -52 11 -9 72 -55 135
-102 63 -46 122 -90 131 -97 8 -7 23 -16 31 -22 31 -19 253 -179 258 -185 3
-4 41 -31 85 -60 44 -30 85 -58 90 -63 19 -16 162 -115 182 -126 27 -14 92
-20 99 -9 3 4 9 6 14 3 15 -9 78 59 88 98 12 42 1 94 -26 126 -9 11 -93 75
-187 140 -93 66 -174 124 -180 128 -5 5 -39 29 -75 53 -36 24 -67 46 -70 49
-3 3 -27 22 -55 40 -27 19 -52 37 -55 40 -3 4 -13 11 -22 16 -9 6 -85 60 -168
120 l-151 110 -58 120 c-32 66 -79 151 -105 189 -25 38 -46 71 -46 73 0 2 -33
46 -74 96 -110 136 -271 287 -395 369 -31 20 -61 41 -67 46 -6 6 -44 28 -85
50 -41 21 -85 45 -99 53 -14 7 -27 14 -30 14 -3 1 -23 9 -45 19 -103 46 -258
96 -345 112 -14 2 -36 7 -50 10 -70 17 -241 32 -367 32 -78 0 -144 -2 -145 -4z"/>
<path d="M3216 4644 c-138 -18 -356 -86 -378 -118 -4 -6 -8 -8 -8 -3 0 9 -150
-83 -215 -133 -107 -83 -260 -252 -302 -333 -9 -18 -19 -34 -23 -37 -9 -6 -73
-141 -101 -212 -24 -63 -65 -231 -74 -308 -7 -58 -8 -231 -1 -290 11 -108 16
-130 91 -390 19 -69 38 -138 41 -154 3 -16 7 -33 10 -38 3 -5 7 -20 10 -33 2
-14 13 -62 24 -108 10 -45 21 -94 24 -110 3 -15 7 -35 10 -45 3 -9 8 -37 11
-62 2 -25 7 -56 9 -70 20 -100 31 -407 16 -480 -4 -25 -11 -62 -14 -83 -6 -38
-33 -111 -65 -175 -27 -55 -102 -143 -169 -197 -70 -56 -163 -109 -284 -161
-105 -45 -138 -82 -138 -156 0 -73 65 -139 138 -140 40 0 200 63 274 109 21
13 41 23 44 23 4 0 22 11 40 25 18 14 35 25 39 25 19 0 181 148 230 211 102
130 163 286 192 489 13 88 6 405 -11 500 -3 14 -7 47 -11 73 -3 26 -10 71 -16
100 -6 29 -13 66 -15 82 -5 26 -32 148 -51 225 -3 14 -7 30 -8 35 -2 6 -8 30
-16 55 -7 25 -13 50 -15 55 -7 31 -45 170 -64 230 -12 39 -23 84 -25 100 -2
17 -7 46 -11 65 -25 127 7 393 63 520 32 74 58 125 66 128 4 2 7 8 7 14 0 19
92 140 154 202 150 152 325 245 532 283 52 9 266 10 330 1 28 -4 82 -17 120
-29 76 -23 237 -97 242 -110 2 -5 9 -9 15 -9 28 0 171 -127 242 -216 22 -27
42 -51 45 -54 18 -18 104 -186 120 -233 33 -103 130 -236 272 -372 114 -110
159 -149 298 -260 74 -59 85 -68 114 -92 31 -26 369 -274 480 -353 318 -224
345 -242 388 -245 128 -11 205 144 119 237 -9 9 -97 73 -196 142 -99 69 -189
132 -200 140 -202 147 -261 190 -263 197 -2 5 -8 9 -14 9 -5 0 -33 19 -62 43
-29 23 -68 53 -86 67 -189 140 -470 402 -529 492 -18 28 -44 78 -58 112 -126
315 -362 569 -658 707 -48 23 -93 42 -99 43 -6 1 -16 5 -21 8 -13 8 -159 48
-195 53 -14 2 -41 6 -60 10 -69 12 -257 12 -354 -1z"/>
<path d="M3407 4054 c-1 -1 -31 -4 -67 -7 -175 -14 -316 -82 -446 -212 -64
-65 -90 -100 -125 -171 -24 -50 -46 -96 -48 -104 -25 -94 -32 -138 -33 -210
-2 -175 25 -258 183 -560 13 -25 27 -46 32 -48 4 -2 7 -9 7 -16 0 -7 9 -21 20
-31 11 -10 20 -23 20 -28 0 -12 120 -181 131 -185 5 -2 9 -8 9 -13 0 -5 25
-40 56 -77 299 -357 630 -661 1119 -1028 216 -163 436 -320 625 -446 99 -66
108 -70 151 -66 76 8 130 63 131 136 1 80 -2 83 -365 334 -45 32 -89 64 -98
73 -9 8 -21 15 -27 15 -5 0 -12 4 -14 8 -1 4 -19 19 -38 32 -45 31 -313 232
-320 239 -3 3 -32 26 -65 51 -33 24 -69 52 -80 61 -11 10 -69 59 -130 109
-249 207 -520 477 -665 660 -28 36 -56 72 -63 80 -7 8 -28 38 -47 65 -19 28
-38 52 -41 55 -21 19 -189 320 -194 350 -1 3 -9 23 -19 45 -80 182 -50 370 79
500 84 83 183 126 295 128 88 1 119 -6 196 -42 86 -40 171 -126 204 -206 58
-138 163 -321 217 -380 10 -11 26 -31 36 -44 60 -88 313 -342 477 -481 14 -12
36 -31 50 -43 14 -12 48 -40 75 -62 28 -22 55 -45 60 -51 6 -6 38 -32 72 -58
34 -25 68 -52 75 -59 7 -6 31 -24 54 -40 22 -15 49 -35 60 -45 11 -9 35 -28
54 -42 19 -13 40 -28 45 -32 82 -66 442 -318 454 -318 5 0 11 -4 13 -8 4 -11
87 -65 118 -78 85 -35 192 47 186 141 -6 70 -24 88 -202 211 -179 123 -281
197 -445 320 -97 72 -185 139 -195 148 -11 8 -62 50 -114 92 -266 214 -570
509 -645 626 -5 8 -30 44 -54 78 -24 34 -66 110 -93 168 -77 164 -141 248
-253 327 -75 53 -124 78 -206 104 -54 17 -204 42 -212 35z"/>
<path d="M3322 3490 c-46 -28 -73 -76 -70 -125 3 -50 67 -210 121 -300 23 -39
161 -249 173 -264 151 -187 272 -315 431 -458 41 -37 81 -73 87 -78 74 -69
391 -310 531 -405 44 -30 82 -57 85 -60 7 -8 210 -142 237 -156 12 -7 28 -17
35 -24 7 -6 49 -34 93 -62 44 -28 129 -87 188 -130 92 -67 115 -79 155 -82 81
-7 152 59 152 139 0 57 -27 92 -129 169 -55 42 -104 76 -110 76 -5 0 -11 4
-13 8 -3 9 -101 74 -148 100 -14 7 -34 22 -46 33 -11 10 -23 19 -27 19 -8 0
-247 160 -271 182 -11 10 -23 18 -28 18 -4 0 -16 7 -25 15 -10 8 -73 54 -139
102 -347 251 -657 541 -832 776 -29 40 -60 80 -68 90 -8 9 -14 19 -14 22 0 3
-15 28 -33 57 -19 29 -51 89 -71 133 -86 182 -91 190 -127 207 -46 23 -97 22
-137 -2z"/>
<path d="M1097 2765 c-48 -16 -64 -31 -86 -74 -20 -40 -19 -58 3 -147 46 -183
163 -420 227 -458 38 -22 107 -20 147 4 40 25 72 90 66 136 -2 18 -17 55 -32
81 -39 69 -80 154 -97 203 -1 3 -5 14 -9 25 -19 50 -26 73 -36 117 -20 94 -98
142 -183 113z"/>
<path d="M2864 2030 c-44 -20 -65 -42 -83 -86 -14 -35 -12 -53 18 -147 11 -38
20 -71 20 -75 -1 -4 0 -9 1 -12 15 -36 17 -264 3 -375 -30 -230 -118 -472
-223 -610 -44 -58 -142 -143 -192 -167 -74 -36 -102 -76 -102 -143 0 -29 6
-60 15 -72 82 -117 231 -80 416 104 35 35 63 67 63 72 0 5 4 11 8 13 39 16
202 334 227 444 2 10 12 46 21 79 9 33 18 69 20 80 2 11 6 31 9 45 21 98 33
216 35 345 1 101 -14 249 -31 292 -5 13 -8 27 -7 31 1 4 -1 14 -4 22 -3 8 -13
36 -22 61 -21 57 -51 86 -108 104 -40 12 -49 11 -84 -5z"/>
<path d="M3656 1218 c-74 -10 -152 -48 -208 -101 -50 -48 -128 -158 -128 -181
0 -9 -3 -16 -8 -16 -6 0 -17 -27 -36 -85 -2 -5 -6 -17 -9 -25 -11 -28 -45
-174 -58 -250 -15 -92 -17 -111 -23 -276 -5 -129 -5 -132 21 -172 55 -84 168
-88 235 -8 20 24 26 62 33 206 2 58 7 121 10 140 27 161 40 220 73 310 18 52
56 117 83 143 60 57 185 39 314 -44 48 -31 169 -149 245 -239 100 -118 164
-181 197 -195 38 -16 109 -10 130 11 8 8 18 14 22 14 13 0 43 60 45 93 5 48
-18 94 -78 156 -30 31 -76 85 -101 121 -56 77 -172 193 -239 238 -110 74 -295
146 -402 155 -23 2 -45 6 -50 9 -5 2 -35 1 -68 -4z"/>
</g>
</svg>
