<svg width="29" height="29" viewBox="0 0 29 29" fill="none" xmlns="http://www.w3.org/2000/svg">
<path d="M27.0577 25.2904L3.73458 0.736687C3.01902 -0.0166363 1.88562 -0.101901 1.20326 0.546257C0.520902 1.19441 0.547825 2.3307 1.26339 3.08402L24.5865 27.6378C25.3021 28.3911 26.4355 28.4764 27.1178 27.8282C27.8002 27.18 27.7733 26.0438 27.0577 25.2904Z" fill="#D9D9D9"/>
<path d="M2.97318 27.0946L27.5269 3.77146C28.2803 3.05589 28.3655 1.92249 27.7174 1.24014C27.0692 0.557779 25.9329 0.584703 25.1796 1.30027L0.625847 24.6234C-0.127476 25.3389 -0.212741 26.4723 0.435417 27.1547C1.08357 27.8371 2.21986 27.8101 2.97318 27.0946Z" fill="#D9D9D9"/>
</svg>
