<svg width="34" height="44" viewBox="0 0 34 44" fill="none" xmlns="http://www.w3.org/2000/svg">
<path d="M26.5121 38.6915C26.3103 38.7054 26.1098 38.6507 25.943 38.5365C20.2411 34.6325 13.9958 30.0098 11.9931 24.5125C11.2483 22.1458 12.5633 19.6235 14.93 18.8788C17.1483 18.1808 19.5323 19.2909 20.4259 21.4378C21.6096 24.6862 28.4405 29.3621 31.0052 31.1223C31.4232 31.3897 31.5453 31.9454 31.2779 32.3633C31.0104 32.7812 30.4548 32.9034 30.0368 32.636C30.0214 32.6261 30.0061 32.6156 29.9913 32.6048C25.1065 29.262 19.9438 25.3926 18.7304 22.0527C18.2209 20.6534 16.6736 19.9322 15.2745 20.4417C13.8753 20.9512 13.154 22.4984 13.6635 23.8975C15.4838 28.8941 21.4731 33.3077 26.9443 37.053C27.3537 37.3333 27.4583 37.8925 27.1779 38.3019C27.0226 38.5288 26.772 38.672 26.4977 38.6907L26.5121 38.6915Z" fill="#1C1C1C"/>
<path d="M3.40532 35.7361C2.91023 35.7695 2.48175 35.3953 2.44832 34.9002C2.42186 34.5093 2.65192 34.1463 3.01671 34.0032C3.99701 33.6199 7.05371 31.9829 5.23081 26.974C3.02265 20.9129 6.14609 14.2092 12.2072 12.0011C12.2102 12 12.2132 11.9988 12.2162 11.9977C18.1493 9.87817 24.6981 12.8152 27.0616 18.6555C27.5371 19.044 30.7725 21.3591 32.9842 22.9132C33.3813 23.2107 33.4621 23.7741 33.1646 24.1712C32.8798 24.5513 32.3482 24.644 31.9515 24.3829C25.8635 20.1058 25.6492 19.7947 25.5452 19.6469C25.5039 19.5875 25.4698 19.5233 25.4437 19.4558C23.4972 14.4318 17.902 11.8736 12.8288 13.6881C7.69956 15.5551 5.0551 21.2267 6.92205 26.3558C6.92226 26.3564 6.92248 26.3571 6.92268 26.3576C8.81842 31.5597 6.35827 34.6287 3.67497 35.676C3.58876 35.7099 3.49779 35.7303 3.40532 35.7361Z" fill="#1C1C1C"/>
<path d="M6.51105 38.9592C6.01596 38.9926 5.58749 38.6184 5.55406 38.1233C5.5276 37.7324 5.75757 37.3694 6.12236 37.2263C9.75616 35.8068 10.9755 33.8056 8.59284 25.6887C7.19421 21.508 9.32959 16.9664 13.4414 15.3766C17.6369 13.8614 22.2683 16.0199 23.8062 20.207C24.1155 21.0556 25.3697 22.6455 32.3878 27.4507C32.8058 27.7182 32.9279 28.2738 32.6604 28.6918C32.393 29.1098 31.8373 29.2319 31.4194 28.9644C31.4039 28.9545 31.3887 28.9441 31.3738 28.9333C23.6205 23.6316 22.5521 22.0179 22.1179 20.8232C20.9262 17.5607 17.3194 15.8775 14.0535 17.0597C10.8351 18.3328 9.18886 21.9135 10.3177 25.1853C12.7456 33.4613 11.8528 36.9223 6.76658 38.9036C6.68464 38.9347 6.59855 38.9534 6.51105 38.9592Z" fill="#1C1C1C"/>
<path d="M28.7949 35.6114C28.5571 35.6283 28.3222 35.55 28.1421 35.3937C27.5033 34.9016 26.8402 34.442 26.1552 34.0167C22.7755 31.8033 17.1182 28.0998 15.3644 23.2823C15.1867 22.8191 15.4181 22.2994 15.8814 22.1216C16.3447 21.9439 16.8643 22.1753 17.0421 22.6386C17.0459 22.6483 17.0494 22.6581 17.0528 22.6679C18.609 26.9226 23.9459 30.4215 27.1388 32.5128C27.8943 32.9801 28.6231 33.4893 29.3215 34.0382C29.6953 34.3645 29.7339 34.9321 29.4075 35.3059C29.2516 35.4847 29.0314 35.5944 28.7949 35.6114Z" fill="#1C1C1C"/>
<path d="M15.8476 43.7151L15.7902 43.7191C15.2941 43.7226 14.8889 43.3233 14.8853 42.8272C14.8778 41.7847 14.9915 36.5711 18.0391 36.3596C19.9546 36.4487 21.7062 37.4667 22.7316 39.0871C22.9468 39.3578 23.18 39.6135 23.4296 39.8529C23.7982 40.1851 23.8277 40.7532 23.4955 41.1219C23.1714 41.4815 22.6208 41.5197 22.2501 41.2083C21.9318 40.9106 21.6346 40.5912 21.3606 40.2523C20.5252 39.2728 19.4936 38.0583 18.1634 38.1506C17.1917 38.218 16.6702 40.9561 16.6856 42.8122C16.6891 43.2874 16.3218 43.6831 15.8476 43.7151Z" fill="#1C1C1C"/>
<path d="M10.3452 42.2957C9.85027 42.331 9.42039 41.9584 9.38511 41.4634C9.35728 41.0735 9.5848 40.7103 9.94776 40.5653C12.1625 39.6712 13.3347 34.8632 12.4119 32.519C12.2026 32.0691 12.3977 31.5347 12.8476 31.3254C13.2974 31.1161 13.8319 31.3112 14.0412 31.7611C14.0565 31.7941 14.0699 31.8281 14.0811 31.8628C15.2397 34.7743 13.9862 40.8759 10.6188 42.2407C10.531 42.2732 10.4388 42.2917 10.3452 42.2957Z" fill="#1C1C1C"/>
<path d="M1.93047 24.8668C1.43545 24.9011 1.00626 24.5277 0.971907 24.0326C0.397967 15.6205 6.74123 8.33114 15.152 7.73745C23.4233 7.1634 26.7145 11.7355 29.1168 15.0741C30.251 16.6472 31.2298 18.0077 32.3755 18.2939C32.8582 18.409 33.1562 18.8935 33.0411 19.3762C32.9261 19.8589 32.4415 20.1569 31.9588 20.0419C31.9524 20.0404 31.9461 20.0388 31.9399 20.0371C30.1545 19.5918 28.9982 17.9842 27.6585 16.1229C25.382 12.9611 22.5493 9.02541 15.2765 9.53016C7.85481 10.0532 2.2574 16.4855 2.76462 23.9082C2.79898 24.4032 2.4255 24.8324 1.93047 24.8668Z" fill="#1C1C1C"/>
<path d="M3.2622 31.0788C2.92242 31.1031 2.59813 30.9331 2.42477 30.6398C1.84645 29.7124 1.43861 28.689 1.22065 27.618C1.1863 27.123 1.55978 26.6938 2.0548 26.6594C2.54983 26.6251 2.97901 26.9985 3.01337 27.4936C3.2173 28.2822 3.54117 29.0349 3.97344 29.7254C4.22591 30.1526 4.08438 30.7035 3.65718 30.9559C3.53682 31.0271 3.4016 31.0692 3.2622 31.0788Z" fill="#1C1C1C"/>
<path d="M27.9495 10.4519C27.6357 10.4738 27.3333 10.3302 27.1522 10.0731C26.1692 8.67868 21.0222 5.52877 14.1313 6.00702C6.96066 6.50468 3.3821 10.4331 2.69138 11.7708C2.47986 12.2196 1.94447 12.4121 1.49562 12.2005C1.04677 11.9889 0.854334 11.4536 1.06594 11.0047C1.07521 10.985 1.08526 10.9656 1.09593 10.9466C1.96439 9.26342 5.97753 4.77164 14.0069 4.21439C21.5575 3.69036 27.2501 7.09598 28.6206 9.03813C28.9064 9.44377 28.8092 10.0043 28.4036 10.2901C28.2697 10.3844 28.1127 10.4404 27.9495 10.4519Z" fill="#1C1C1C"/>
<path d="M23.8664 3.53003C23.767 3.5371 23.6672 3.52773 23.5709 3.50199C23.2038 3.40318 22.8471 3.29824 22.496 3.19655C19.7132 2.32528 16.7759 2.06094 13.8824 2.42168C9.57997 2.72028 8.64472 3.2842 7.35326 4.06375C7.03526 4.25698 6.698 4.45871 6.30246 4.67707C5.86295 4.90904 5.31857 4.7408 5.0866 4.3012C4.85463 3.86168 5.02287 3.3173 5.46247 3.08533C5.82887 2.88875 6.13834 2.7016 6.4323 2.52449C7.87388 1.64991 9.02003 0.957871 13.758 0.629043C16.8646 0.253685 20.0156 0.540854 23.0032 1.4717C23.3415 1.57074 23.68 1.67154 24.0355 1.76034C24.5174 1.87889 24.8119 2.36565 24.6933 2.84748C24.5985 3.2325 24.2624 3.50989 23.8664 3.53003Z" fill="#1C1C1C"/>
<path d="M31.908 15.581C31.5181 15.6078 31.1557 15.3796 31.0113 15.0164C30.4639 13.871 29.8153 12.7766 29.0731 11.7465C28.7845 11.3427 28.8777 10.7814 29.2816 10.4928C29.6853 10.2041 30.2466 10.2974 30.5353 10.7012C31.3625 11.8489 32.0806 13.0715 32.6801 14.353C32.8633 14.8142 32.638 15.3366 32.1769 15.5197C32.091 15.5539 32.0002 15.5746 31.908 15.581Z" fill="#1C1C1C"/>
</svg>
