<svg width="15" height="19" viewBox="0 0 15 19" fill="none" xmlns="http://www.w3.org/2000/svg">
<path d="M7.46445 0.776123C3.79893 0.776123 0.817993 3.75706 0.817993 7.42258C0.817993 12.0297 6.81753 18.0824 7.07231 18.3383C7.18086 18.4457 7.32266 18.5 7.46445 18.5C7.60624 18.5 7.74803 18.4457 7.85659 18.3383C8.11137 18.0824 14.1109 12.0297 14.1109 7.42258C14.1109 3.75706 11.13 0.776123 7.46445 0.776123ZM7.46445 17.1452C6.1418 15.7295 1.92574 10.9419 1.92574 7.42258C1.92574 4.36853 4.4104 1.88387 7.46445 1.88387C10.5185 1.88387 13.0032 4.36853 13.0032 7.42258C13.0032 10.9386 8.78709 15.7295 7.46445 17.1452Z" fill="url(#paint0_linear_154_75)"/>
<path d="M7.46445 4.09935C5.63224 4.09935 4.14122 5.59037 4.14122 7.42258C4.14122 9.25478 5.63224 10.7458 7.46445 10.7458C9.29665 10.7458 10.7877 9.25478 10.7877 7.42258C10.7877 5.59037 9.29665 4.09935 7.46445 4.09935ZM7.46445 9.63806C6.24261 9.63806 5.24896 8.64442 5.24896 7.42258C5.24896 6.20074 6.24261 5.20709 7.46445 5.20709C8.68629 5.20709 9.67993 6.20074 9.67993 7.42258C9.67993 8.64442 8.68629 9.63806 7.46445 9.63806Z" fill="url(#paint1_linear_154_75)"/>
<defs>
<linearGradient id="paint0_linear_154_75" x1="7.46445" y1="-3.0894" x2="21.1682" y2="11.7611" gradientUnits="userSpaceOnUse">
<stop stop-color="#FFD769"/>
<stop offset="1" stop-color="#EDA41B"/>
</linearGradient>
<linearGradient id="paint1_linear_154_75" x1="7.46445" y1="-3.0894" x2="21.1682" y2="11.7611" gradientUnits="userSpaceOnUse">
<stop stop-color="#FFD769"/>
<stop offset="1" stop-color="#EDA41B"/>
</linearGradient>
</defs>
</svg>
