<svg width="39" height="30" viewBox="0 0 39 30" fill="none" xmlns="http://www.w3.org/2000/svg">
<path d="M36.5366 29.2294H2.43579C1.09049 29.2294 0 28.1388 0 26.7936C0 25.4484 1.09049 24.3578 2.43579 24.3578H36.5367C37.8819 24.3578 38.9724 25.4484 38.9724 26.7936C38.9724 28.1388 37.8819 29.2294 36.5366 29.2294Z" fill="#D9D9D9"/>
<path d="M36.5366 17.0504H2.43579C1.09049 17.0504 0 15.9599 0 14.6147C0 13.2695 1.09049 12.1789 2.43579 12.1789H36.5367C37.8819 12.1789 38.9724 13.2694 38.9724 14.6147C38.9724 15.96 37.8819 17.0504 36.5366 17.0504Z" fill="#D9D9D9"/>
<path d="M36.5366 4.87158H2.43579C1.09049 4.87158 0 3.78108 0 2.43579C0 1.09049 1.09049 0 2.43579 0H36.5367C37.8819 0 38.9724 1.09049 38.9724 2.43579C38.9724 3.78108 37.8819 4.87158 36.5366 4.87158Z" fill="#D9D9D9"/>
</svg>
