<svg width="19" height="19" viewBox="0 0 19 19" fill="none" xmlns="http://www.w3.org/2000/svg">
<path d="M15.3618 12.298C14.9666 11.9118 14.4465 11.6793 13.8952 11.6422C13.3439 11.6051 12.7974 11.766 12.354 12.0958L11.819 12.5171C11.6805 12.6185 11.5104 12.6674 11.3391 12.655C11.1678 12.6427 11.0065 12.5699 10.8839 12.4497L6.33854 7.88329C6.21595 7.76201 6.14155 7.60036 6.12915 7.42836C6.11675 7.25636 6.16721 7.08571 6.27114 6.94811L6.67133 6.41312C7.00121 5.96896 7.16093 5.42126 7.12151 4.86941C7.0821 4.31756 6.84615 3.79813 6.45649 3.40537L5.19273 2.14161C4.99939 1.9475 4.76962 1.79348 4.51661 1.68838C4.26359 1.58329 3.99232 1.52919 3.71835 1.52919C3.44438 1.52919 3.1731 1.58329 2.92009 1.68838C2.66708 1.79348 2.4373 1.9475 2.24396 2.14161L1.37618 3.00939C0.744259 3.63934 0.347954 4.46727 0.253628 5.35454C0.159302 6.24182 0.372683 7.13457 0.858038 7.88329C3.36452 11.8194 6.70338 15.1583 10.6395 17.6648C11.3894 18.1442 12.2809 18.3522 13.1654 18.2541C14.05 18.156 14.8743 17.7577 15.5008 17.1256L16.3686 16.2578C16.5627 16.0645 16.7167 15.8347 16.8218 15.5817C16.9269 15.3287 16.981 15.0574 16.981 14.7834C16.981 14.5094 16.9269 14.2382 16.8218 13.9852C16.7167 13.7321 16.5627 13.5024 16.3686 13.309L15.3618 12.298ZM15.4839 15.3647L14.6162 16.2325C14.1925 16.6608 13.6347 16.9308 13.036 16.9975C12.4372 17.0642 11.8337 16.9236 11.3262 16.599C7.54119 14.1914 4.3314 10.9816 1.92381 7.19665C1.59797 6.6898 1.45616 6.0864 1.52211 5.48747C1.58806 4.88855 1.85777 4.33046 2.28609 3.90666L3.15387 3.03888C3.22944 2.96271 3.31935 2.90226 3.4184 2.86101C3.51745 2.81975 3.62369 2.79852 3.73099 2.79852C3.83828 2.79852 3.94452 2.81975 4.04357 2.86101C4.14262 2.90226 4.23253 2.96271 4.3081 3.03888L5.57186 4.30264C5.74727 4.47994 5.85345 4.71416 5.87122 4.96293C5.88899 5.21171 5.81717 5.45863 5.66875 5.65907L5.26013 6.19828C4.97476 6.5796 4.8364 7.05102 4.87045 7.52609C4.90449 8.00116 5.10865 8.44803 5.44549 8.78477L9.99081 13.3343C10.3289 13.6688 10.7754 13.8713 11.2498 13.9053C11.7241 13.9393 12.195 13.8025 12.5773 13.5197L13.1123 13.1195C13.3127 12.971 13.5597 12.8992 13.8084 12.917C14.0572 12.9348 14.2914 13.0409 14.4687 13.2164L15.4839 14.2021C15.5614 14.2778 15.6229 14.3682 15.6649 14.4681C15.7069 14.5679 15.7286 14.6751 15.7286 14.7834C15.7286 14.8917 15.7069 14.9989 15.6649 15.0988C15.6229 15.1986 15.5614 15.289 15.4839 15.3647Z" fill="url(#paint0_linear_154_81)"/>
<path d="M13.8074 7.80746C13.8074 7.97505 13.8739 8.13577 13.9924 8.25427C14.1109 8.37277 14.2717 8.43934 14.4392 8.43934C14.6068 8.43934 14.7675 8.37277 14.886 8.25427C15.0045 8.13577 15.0711 7.97505 15.0711 7.80746C15.07 6.65259 14.6107 5.54533 13.7941 4.72871C12.9775 3.91209 11.8702 3.45282 10.7154 3.45171C10.5478 3.45171 10.3871 3.51828 10.2686 3.63678C10.1501 3.75528 10.0835 3.916 10.0835 4.08359C10.0835 4.25117 10.1501 4.41189 10.2686 4.53039C10.3871 4.64889 10.5478 4.71547 10.7154 4.71547C11.5354 4.71547 12.3219 5.04123 12.9017 5.62109C13.4816 6.20095 13.8074 6.98741 13.8074 7.80746Z" fill="url(#paint1_linear_154_81)"/>
<path d="M10.7154 0.0227051C10.5478 0.0227051 10.3871 0.0892778 10.2686 0.207778C10.1501 0.326279 10.0835 0.487 10.0835 0.654585C10.0835 0.82217 10.1501 0.982891 10.2686 1.10139C10.3871 1.21989 10.5478 1.28646 10.7154 1.28646C12.4445 1.28758 14.1025 1.97497 15.3252 3.19765C16.5479 4.42034 17.2352 6.07833 17.2364 7.80746C17.2364 7.97505 17.3029 8.13577 17.4214 8.25427C17.5399 8.37277 17.7007 8.43934 17.8682 8.43934C18.0358 8.43934 18.1966 8.37277 18.3151 8.25427C18.4335 8.13577 18.5001 7.97505 18.5001 7.80746C18.4979 5.7435 17.677 3.76471 16.2176 2.30527C14.7581 0.845829 12.7793 0.0249352 10.7154 0.0227051Z" fill="url(#paint2_linear_154_81)"/>
<defs>
<linearGradient id="paint0_linear_154_81" x1="9.36597" y1="-3.95868" x2="22.615" y2="15.1987" gradientUnits="userSpaceOnUse">
<stop stop-color="#FFD769"/>
<stop offset="1" stop-color="#EDA41B"/>
</linearGradient>
<linearGradient id="paint1_linear_154_81" x1="9.36597" y1="-3.95868" x2="22.615" y2="15.1987" gradientUnits="userSpaceOnUse">
<stop stop-color="#FFD769"/>
<stop offset="1" stop-color="#EDA41B"/>
</linearGradient>
<linearGradient id="paint2_linear_154_81" x1="9.36597" y1="-3.95868" x2="22.615" y2="15.1987" gradientUnits="userSpaceOnUse">
<stop stop-color="#FFD769"/>
<stop offset="1" stop-color="#EDA41B"/>
</linearGradient>
</defs>
</svg>
