<svg width="22" height="29" viewBox="0 0 22 29" fill="none" xmlns="http://www.w3.org/2000/svg">
<path d="M17.1671 25.3674C17.0356 25.3764 16.9049 25.3408 16.7962 25.2664C13.0809 22.7225 9.01144 19.7104 7.70649 16.1283C7.22121 14.5862 8.07805 12.9427 9.62021 12.4574C11.0656 12.0026 12.6191 12.726 13.2013 14.1249C13.9726 16.2415 18.4236 19.2883 20.0948 20.4353C20.3672 20.6095 20.4467 20.9716 20.2724 21.2439C20.0982 21.5163 19.7361 21.5959 19.4638 21.4216C19.4537 21.4151 19.4438 21.4083 19.4341 21.4013C16.2512 19.2231 12.8872 16.7018 12.0965 14.5255C11.7645 13.6138 10.7563 13.1438 9.84466 13.4758C8.93294 13.8078 8.46296 14.816 8.79494 15.7276C9.98103 18.9834 13.8837 21.8593 17.4487 24.2997C17.7155 24.4824 17.7836 24.8468 17.6009 25.1135C17.4997 25.2613 17.3364 25.3547 17.1577 25.3668L17.1671 25.3674Z" fill="#FFD667"/>
<path d="M2.1107 23.4416C1.7881 23.4634 1.50891 23.2196 1.48712 22.897C1.46988 22.6422 1.61979 22.4057 1.85749 22.3125C2.49625 22.0627 4.48799 20.9961 3.30019 17.7322C1.86136 13.7828 3.89659 9.41473 7.84602 7.97589C7.84795 7.97521 7.84994 7.97441 7.85187 7.97372C11.7179 6.59261 15.9851 8.50638 17.5251 12.3119C17.835 12.5651 19.9432 14.0736 21.3843 15.0862C21.6431 15.2801 21.6957 15.6472 21.5019 15.906C21.3162 16.1536 20.9699 16.2141 20.7114 16.0439C16.7444 13.2569 16.6048 13.0542 16.5371 12.9579C16.5101 12.9192 16.4879 12.8774 16.4709 12.8334C15.2026 9.55977 11.5567 7.89282 8.25105 9.07516C4.90883 10.2917 3.1857 13.9873 4.40221 17.3295C4.40234 17.3298 4.40248 17.3303 4.40262 17.3306C5.63788 20.7203 4.03484 22.7201 2.28641 23.4025C2.23023 23.4246 2.17096 23.4378 2.1107 23.4416Z" fill="#FFD667"/>
<path d="M4.1344 25.5418C3.8118 25.5636 3.5326 25.3198 3.51082 24.9972C3.49358 24.7424 3.64343 24.5059 3.88113 24.4126C6.24891 23.4877 7.04344 22.1837 5.49089 16.8947C4.57955 14.1706 5.97096 11.2113 8.6502 10.1754C11.384 9.18811 14.4018 10.5946 15.4039 13.3229C15.6054 13.8758 16.4227 14.9118 20.9957 18.0429C21.2681 18.2172 21.3476 18.5792 21.1733 18.8515C20.9991 19.1239 20.637 19.2035 20.3647 19.0292C20.3546 19.0228 20.3447 19.016 20.335 19.0089C15.2829 15.5543 14.5867 14.5029 14.3038 13.7244C13.5273 11.5985 11.1771 10.5018 9.04905 11.2721C6.95194 12.1016 5.87926 14.4348 6.61481 16.5667C8.19684 21.9594 7.61506 24.2146 4.3009 25.5056C4.24751 25.5259 4.19141 25.5381 4.1344 25.5418Z" fill="#FFD667"/>
<path d="M18.6546 23.3604C18.4996 23.3714 18.3465 23.3204 18.2292 23.2185C17.813 22.8979 17.3809 22.5984 16.9345 22.3213C14.7323 20.879 11.046 18.4658 9.90325 15.3268C9.78745 15.0249 9.93825 14.6863 10.2401 14.5704C10.542 14.4546 10.8806 14.6054 10.9965 14.9073C10.9989 14.9136 11.0012 14.92 11.0034 14.9264C12.0174 17.6988 15.4949 19.9786 17.5754 21.3413C18.0678 21.6458 18.5426 21.9776 18.9977 22.3353C19.2413 22.5479 19.2664 22.9178 19.0537 23.1613C18.9522 23.2778 18.8087 23.3493 18.6546 23.3604Z" fill="#FFD667"/>
<path d="M10.2181 28.6408L10.1807 28.6433C9.85742 28.6456 9.59343 28.3855 9.59107 28.0622C9.58619 27.3829 9.66028 23.9857 11.6461 23.8479C12.8942 23.9059 14.0356 24.5693 14.7037 25.6252C14.844 25.8015 14.9959 25.9682 15.1585 26.1242C15.3987 26.3406 15.4179 26.7108 15.2015 26.951C14.9903 27.1854 14.6315 27.2103 14.39 27.0073C14.1826 26.8134 13.9889 26.6052 13.8104 26.3844C13.266 25.7461 12.5938 24.9548 11.7271 25.0149C11.0939 25.0589 10.7541 26.843 10.7641 28.0525C10.7664 28.362 10.5271 28.6199 10.2181 28.6408Z" fill="#FFD667"/>
<path d="M6.63275 27.7159C6.31023 27.7389 6.03012 27.4961 6.00713 27.1736C5.989 26.9195 6.13725 26.6829 6.37376 26.5883C7.8169 26.0058 8.58072 22.8729 7.97938 21.3454C7.843 21.0522 7.97013 20.704 8.26327 20.5676C8.5564 20.4313 8.90463 20.5584 9.04101 20.8515C9.05103 20.8731 9.05972 20.8952 9.06707 20.9178C9.82198 22.815 9.00519 26.7907 6.811 27.6801C6.75382 27.7012 6.6937 27.7133 6.63275 27.7159Z" fill="#FFD667"/>
<path d="M1.14969 16.3592C0.827134 16.3816 0.547477 16.1382 0.52509 15.8157C0.151111 10.3343 4.28439 5.58457 9.76481 5.19772C15.1544 4.82367 17.299 7.80284 18.8643 9.97828C19.6033 11.0033 20.2411 11.8898 20.9877 12.0763C21.3022 12.1513 21.4964 12.467 21.4214 12.7815C21.3465 13.0961 21.0306 13.2902 20.7161 13.2153C20.712 13.2143 20.7079 13.2133 20.7038 13.2122C19.5405 12.922 18.787 11.8745 17.9141 10.6616C16.4307 8.60144 14.5849 6.03695 9.84594 6.36585C5.00999 6.70665 1.36272 10.8979 1.69322 15.7346C1.71561 16.0572 1.47225 16.3368 1.14969 16.3592Z" fill="#FFD667"/>
<path d="M2.01701 20.4061C1.79568 20.4219 1.58444 20.3111 1.47152 20.1201C1.0948 19.516 0.829138 18.8494 0.687161 18.1517C0.664782 17.8292 0.908063 17.5497 1.23052 17.5273C1.55298 17.5049 1.83254 17.7482 1.85492 18.0707C1.98776 18.5844 2.19873 19.0746 2.4803 19.5244C2.64476 19.8027 2.55257 20.1615 2.2743 20.326C2.19589 20.3724 2.10781 20.3998 2.01701 20.4061Z" fill="#FFD667"/>
<path d="M18.1037 6.96645C17.8992 6.98075 17.7022 6.88713 17.5842 6.71965C16.9436 5.81103 13.5899 3.75854 9.09973 4.07017C4.42736 4.39444 2.09558 6.95419 1.6455 7.82583C1.50767 8.1183 1.15881 8.24369 0.86634 8.10581C0.573871 7.96799 0.44848 7.61913 0.586359 7.32666C0.5924 7.3138 0.598952 7.30119 0.605906 7.28882C1.1718 6.19204 3.78676 3.2652 9.01867 2.90209C13.9387 2.56063 17.648 4.77974 18.541 6.04524C18.7272 6.30955 18.6639 6.67481 18.3996 6.86102C18.3123 6.92248 18.2101 6.95895 18.1037 6.96645Z" fill="#FFD667"/>
<path d="M15.4431 2.45616C15.3784 2.46077 15.3133 2.45466 15.2506 2.43789C15.0114 2.3735 14.779 2.30513 14.5502 2.23886C12.7369 1.67115 10.823 1.4989 8.93754 1.73396C6.1341 1.92853 5.5247 2.29598 4.68318 2.80394C4.47597 2.92984 4.25622 3.06129 3.99848 3.20357C3.71209 3.35472 3.35737 3.2451 3.20622 2.95865C3.05507 2.67226 3.1647 2.31755 3.45114 2.16639C3.68989 2.0383 3.89154 1.91636 4.08308 1.80095C5.02242 1.23108 5.76925 0.780143 8.85653 0.565878C10.8808 0.321295 12.934 0.508414 14.8807 1.11495C15.1011 1.17949 15.3217 1.24517 15.5533 1.30303C15.8673 1.38028 16.0592 1.69745 15.982 2.01141C15.9202 2.26229 15.7012 2.44304 15.4431 2.45616Z" fill="#FFD667"/>
<path d="M20.683 10.3086C20.429 10.3261 20.1928 10.1774 20.0988 9.9407C19.7421 9.19432 19.3195 8.48123 18.8359 7.81001C18.6478 7.54693 18.7085 7.18118 18.9717 6.99308C19.2348 6.80498 19.6005 6.86575 19.7886 7.12889C20.3276 7.87676 20.7955 8.67341 21.1862 9.50844C21.3055 9.80891 21.1587 10.1493 20.8582 10.2687C20.8023 10.2909 20.7432 10.3044 20.683 10.3086Z" fill="#FFD667"/>
</svg>
