<svg width="14" height="15" viewBox="0 0 14 15" fill="none" xmlns="http://www.w3.org/2000/svg">
<g clip-path="url(#clip0_231_132)">
<path d="M0 11.2309V12.3984C0 13.3623 2.32695 14.1484 5.25 14.1484C8.12383 14.1484 10.5 13.3623 10.5 12.3984V11.2295C9.37344 12.0266 7.30625 12.3984 5.25 12.3984C3.19375 12.3984 1.12793 12.0266 0 11.2309ZM8.75 3.64844C11.6238 3.64844 14 2.8623 14 1.89844C14 0.93457 11.6484 0.148438 8.75 0.148438C5.82695 0.148438 3.5 0.93457 3.5 1.89844C3.5 2.8623 5.82695 3.64844 8.75 3.64844ZM0 8.3625V9.77344C0 10.7373 2.32695 11.5234 5.25 11.5234C8.12383 11.5234 10.5 10.7373 10.5 9.77344V8.3625C9.37344 9.29219 7.30352 9.77344 5.25 9.77344C3.19648 9.77344 1.12793 9.29219 0 8.3625ZM11.375 8.66328C12.9418 8.35703 14 7.79922 14 7.14844V5.97813C13.3643 6.4293 12.4346 6.73363 11.375 6.92148V8.66328ZM5.25 4.52344C2.32695 4.52344 0 5.50234 0 6.71094C0 7.91953 2.32695 8.89844 5.25 8.89844C8.12383 8.89844 10.5 7.9209 10.5 6.71094C10.5 5.50098 8.12383 4.52344 5.25 4.52344ZM11.2438 6.06016C12.8871 5.76758 14 5.18516 14 4.52344V3.35312C13.0293 4.04027 11.3613 4.40941 9.60313 4.49828C10.4125 4.88984 11.0059 5.41484 11.2438 6.06016Z" fill="url(#paint0_linear_231_132)"/>
</g>
<defs>
<linearGradient id="paint0_linear_231_132" x1="7" y1="-2.90492" x2="17.1634" y2="11.7802" gradientUnits="userSpaceOnUse">
<stop stop-color="#FFD769"/>
<stop offset="1" stop-color="#EDA41B"/>
</linearGradient>
<clipPath id="clip0_231_132">
<rect width="14" height="14" fill="white" transform="translate(0 0.148438)"/>
</clipPath>
</defs>
</svg>
