<svg width="25" height="30" viewBox="0 0 25 30" fill="none" xmlns="http://www.w3.org/2000/svg">
<path d="M24.9313 14.859L23.4874 0.0665283H2.23539L0.796422 14.7813L0.791569 14.8566C0.587758 16.6252 0.838206 18.4165 1.51925 20.0614C2.2003 21.7062 3.28945 23.1503 4.68382 24.2572C7.38215 26.378 9.9131 28.0402 12.199 29.188L12.8638 29.5253L13.5239 29.188C15.8121 28.0378 18.3407 26.378 21.039 24.2572C22.4332 23.1507 23.5222 21.707 24.2032 20.0626C24.8843 18.4181 25.1348 16.6272 24.9313 14.859ZM5.86312 19.5326L6.74886 14.9415L11.2841 12.7673V11.85C10.7924 11.444 10.4144 10.9172 10.1873 10.3213C9.93146 10.2423 9.70753 10.0837 9.5482 9.86845C9.38887 9.65324 9.30248 9.39275 9.30163 9.12498V8.37274C9.30112 8.2263 9.34362 8.08292 9.42385 7.96041C9.50407 7.8379 9.61851 7.74164 9.75294 7.68357V6.40961C9.75067 6.02736 9.8382 5.64992 10.0085 5.30768C10.1788 4.96545 10.427 4.66799 10.7333 4.43925C11.0413 4.21344 11.3838 4.03889 11.7476 3.92236C12.0026 3.83885 12.2665 3.78511 12.5338 3.76222C12.8465 3.73745 13.161 3.75048 13.4705 3.80103C13.786 3.85299 14.0929 3.94769 14.3829 4.08251C14.5954 4.18143 14.7978 4.30091 14.9871 4.43924C15.2927 4.66824 15.5403 4.96588 15.7097 5.30814C15.8792 5.6504 15.9658 6.0277 15.9626 6.4096V7.68356C16.0982 7.74053 16.2139 7.83639 16.2951 7.95904C16.3763 8.0817 16.4193 8.22565 16.4188 8.37274V9.12498C16.4179 9.39309 16.3312 9.65387 16.1714 9.86915C16.0116 10.0844 15.787 10.2429 15.5307 10.3213C15.3036 10.9172 14.9256 11.444 14.4338 11.85V12.7673L18.9716 14.9415L19.8597 19.5326H5.86312Z" fill="url(#paint0_linear_211_231)"/>
<defs>
<linearGradient id="paint0_linear_211_231" x1="12.8613" y1="-6.35834" x2="35.368" y2="20.4417" gradientUnits="userSpaceOnUse">
<stop stop-color="#FFD769"/>
<stop offset="1" stop-color="#EDA41B"/>
</linearGradient>
</defs>
</svg>
