<svg width="25" height="24" viewBox="0 0 25 24" fill="none" xmlns="http://www.w3.org/2000/svg">
<path d="M12.3751 5.12061C8.51281 5.12061 5.37067 8.26275 5.37067 12.125C5.37067 14.7246 6.79418 16.9977 8.90255 18.2063V15.2041L7.45807 13.8125V11.4292H8.84967V13.2207L10.2942 14.6123V18.8139C10.7406 18.9531 11.2062 19.0484 11.6858 19.0955V11.9921C10.4834 11.6846 9.59186 10.5922 9.59186 9.29541C9.59186 7.76075 10.8404 6.51221 12.3751 6.51221C13.9097 6.51221 15.1583 7.76075 15.1583 9.29541C15.1583 10.5875 14.2731 11.6767 13.0774 11.9887V19.0943C13.5523 19.0468 14.0135 18.9518 14.456 18.8139V14.6123L15.9005 13.2207V11.4292H17.2921V13.8125L15.8476 15.2041V18.2063C17.9559 16.9977 19.3795 14.7246 19.3795 12.125C19.3795 8.26275 16.2373 5.12061 12.3751 5.12061Z" fill="url(#paint0_linear_210_229)"/>
<path d="M12.3751 7.90381C11.6077 7.90381 10.9835 8.52808 10.9835 9.29541C10.9835 10.0627 11.6077 10.687 12.3751 10.687C13.1424 10.687 13.7667 10.0627 13.7667 9.29541C13.7667 8.52808 13.1424 7.90381 12.3751 7.90381Z" fill="url(#paint1_linear_210_229)"/>
<path d="M22.5663 9.63793C22.3128 8.59697 21.9034 7.60981 21.3449 6.69256L22.3413 5.29757L19.2117 2.16791L17.8175 3.16378C16.9017 2.60566 15.916 2.19629 14.8765 1.94223L14.5945 0.25H10.1686L9.88655 1.94219C8.84916 2.19569 7.86497 2.60417 6.95055 3.16081L5.54759 2.15867L2.41797 5.28829L3.4195 6.69042C2.86323 7.60355 2.45475 8.58611 2.20069 9.62211L0.500061 9.90549V14.3314L2.1974 14.6143C2.45002 15.6505 2.8573 16.6337 3.41231 17.5475L2.40878 18.9524L5.5384 22.0821L6.93854 21.082C7.85226 21.6398 8.83585 22.0495 9.87305 22.3045L10.1556 24H14.5815L14.863 22.3111C15.9027 22.0585 16.8889 21.6504 17.8055 21.0934L19.2025 22.0913L22.3322 18.9618L21.3377 17.5695C21.8974 16.653 22.308 15.6664 22.563 14.6256L24.2501 14.3445V9.91857L22.5663 9.63793ZM12.3751 20.521C7.74548 20.521 3.97906 16.7546 3.97906 12.125C3.97906 7.49542 7.74548 3.729 12.3751 3.729C17.0046 3.729 20.7711 7.49542 20.7711 12.125C20.7711 16.7546 17.0046 20.521 12.3751 20.521Z" fill="url(#paint2_linear_210_229)"/>
<defs>
<linearGradient id="paint0_linear_210_229" x1="12.3751" y1="-4.9298" x2="29.6165" y2="19.9824" gradientUnits="userSpaceOnUse">
<stop stop-color="#FFD769"/>
<stop offset="1" stop-color="#EDA41B"/>
</linearGradient>
<linearGradient id="paint1_linear_210_229" x1="12.3751" y1="-4.9298" x2="29.6165" y2="19.9824" gradientUnits="userSpaceOnUse">
<stop stop-color="#FFD769"/>
<stop offset="1" stop-color="#EDA41B"/>
</linearGradient>
<linearGradient id="paint2_linear_210_229" x1="12.3751" y1="-4.9298" x2="29.6165" y2="19.9824" gradientUnits="userSpaceOnUse">
<stop stop-color="#FFD769"/>
<stop offset="1" stop-color="#EDA41B"/>
</linearGradient>
</defs>
</svg>
