<svg width="25" height="24" viewBox="0 0 25 24" fill="none" xmlns="http://www.w3.org/2000/svg">
<path d="M20.8572 11.2768H13.2233C12.7733 11.2768 12.3419 11.4555 12.0237 11.7737C11.7056 12.0918 11.5268 12.5233 11.5268 12.9732V17.8182C11.5289 18.7436 11.7463 19.6558 12.1618 20.4827C12.5772 21.3096 13.1793 22.0285 13.9205 22.5826L14.8535 23.2756C15.4859 23.746 16.253 24 17.0411 24C17.8292 24 18.5963 23.746 19.2286 23.2756L20.1616 22.5826C20.9025 22.0283 21.5043 21.3093 21.9194 20.4825C22.3346 19.6556 22.5517 18.7434 22.5536 17.8182V12.9732C22.5536 12.5233 22.3749 12.0918 22.0567 11.7737C21.7386 11.4555 21.3071 11.2768 20.8572 11.2768ZM19.3889 16.0616L17.2684 18.6062C17.1886 18.7017 17.0889 18.7784 16.9761 18.8311C16.8634 18.8837 16.7405 18.9109 16.6161 18.9107H16.5703C16.4386 18.9035 16.3104 18.8658 16.1958 18.8004C16.0813 18.735 15.9835 18.6438 15.9104 18.5341L15.0622 17.2618C14.9373 17.0746 14.8919 16.8455 14.936 16.6249C14.9801 16.4042 15.11 16.2102 15.2971 16.0853C15.4843 15.9604 15.7134 15.9151 15.934 15.9591C16.1547 16.0032 16.3488 16.1331 16.4736 16.3203L16.6916 16.6477L18.0844 14.975C18.2286 14.802 18.4356 14.6934 18.6599 14.673C18.8842 14.6526 19.1073 14.7222 19.2803 14.8664C19.4533 15.0106 19.562 15.2176 19.5823 15.4419C19.6027 15.6662 19.5331 15.8886 19.3889 16.0616Z" fill="url(#paint0_linear_185_46)"/>
<path d="M23.9531 9.78394L12.9264 0.453626C12.7728 0.322214 12.5772 0.25 12.3751 0.25C12.1729 0.25 11.9774 0.322214 11.8237 0.453626L0.796979 9.78394C0.62601 9.93017 0.52013 10.1383 0.502633 10.3626C0.485135 10.5869 0.557452 10.809 0.703676 10.9799C0.8499 11.1509 1.05805 11.2568 1.28234 11.2743C1.50663 11.2918 1.72868 11.2194 1.89965 11.0732L3.04474 10.1063V21.4553C3.04474 22.1302 3.31283 22.7774 3.79004 23.2546C4.26725 23.7319 4.91449 24 5.58937 24H8.134C8.58351 23.9986 9.01422 23.8195 9.33207 23.5016C9.64992 23.1838 9.82908 22.753 9.83042 22.3035V12.9732C9.83042 12.0734 10.1879 11.2104 10.8242 10.5741C11.4604 9.93783 12.3234 9.58037 13.2233 9.58037H20.8572C21.4378 9.57931 22.009 9.72781 22.5156 10.0116C23.0222 10.2953 23.4471 10.7048 23.7496 11.2005C23.8622 11.1475 23.9632 11.0725 24.0464 10.9799C24.1188 10.8953 24.1739 10.7972 24.2084 10.6913C24.2429 10.5853 24.2562 10.4737 24.2475 10.3626C24.2388 10.2515 24.2084 10.1433 24.1579 10.044C24.1074 9.94471 24.0378 9.85634 23.9531 9.78394Z" fill="url(#paint1_linear_185_46)"/>
<defs>
<linearGradient id="paint0_linear_185_46" x1="12.3751" y1="-4.9298" x2="29.6165" y2="19.9824" gradientUnits="userSpaceOnUse">
<stop stop-color="#FFD769"/>
<stop offset="1" stop-color="#EDA41B"/>
</linearGradient>
<linearGradient id="paint1_linear_185_46" x1="12.3751" y1="-4.9298" x2="29.6165" y2="19.9824" gradientUnits="userSpaceOnUse">
<stop stop-color="#FFD769"/>
<stop offset="1" stop-color="#EDA41B"/>
</linearGradient>
</defs>
</svg>
