<svg width="26" height="26" viewBox="0 0 26 26" fill="none" xmlns="http://www.w3.org/2000/svg">
<path d="M12.8336 0C10.2953 0 7.81406 0.752678 5.70359 2.16285C3.59311 3.57303 1.94819 5.57737 0.976846 7.9224C0.00549953 10.2674 -0.248649 12.8479 0.246539 15.3373C0.741727 17.8268 1.96401 20.1135 3.75882 21.9084C5.55364 23.7032 7.84037 24.9254 10.3298 25.4206C12.8193 25.9158 15.3997 25.6617 17.7448 24.6903C20.0898 23.719 22.0941 22.0741 23.5043 19.9636C24.9145 17.8531 25.6672 15.3719 25.6672 12.8336C25.6667 9.43006 24.3145 6.16603 21.9078 3.75935C19.5012 1.35267 16.2371 0.000425365 12.8336 0ZM11.0288 20.7864H7.13062C7.05415 20.7861 6.98091 20.7556 6.92684 20.7015C6.87276 20.6474 6.84222 20.5742 6.84187 20.4977V16.8241C7.26494 17.0251 7.74008 17.0896 8.20143 17.0086C8.53671 17.6694 8.67323 18.4133 8.59446 19.1502C8.58894 19.2249 8.613 19.2989 8.66147 19.3561C8.70994 19.4133 8.77893 19.4492 8.85359 19.456C8.92825 19.4628 9.00261 19.4401 9.06066 19.3926C9.11871 19.3452 9.1558 19.2768 9.16395 19.2023C9.24933 18.3879 9.10629 17.5658 8.75087 16.8281C8.98607 16.7201 9.19532 16.5628 9.36447 16.3669C10.4178 17.4966 11.097 18.9237 11.3096 20.4536C11.316 20.4944 11.3135 20.5361 11.3024 20.5758C11.2913 20.6156 11.2718 20.6525 11.2452 20.6841C11.2185 20.7156 11.1854 20.7411 11.1481 20.7588C11.1108 20.7764 11.0701 20.7859 11.0288 20.7864ZM7.46751 14.3335C7.91993 14.3668 8.37479 14.3371 8.81905 14.2453C8.88811 14.2284 8.96096 14.2375 9.0238 14.2707C9.08663 14.304 9.13507 14.3592 9.15994 14.4258C9.27216 14.6762 9.31247 14.9529 9.27634 15.2248C9.24022 15.4968 9.12909 15.7534 8.9554 15.9658C8.70225 16.2362 8.36291 16.4101 7.99557 16.4577C7.62824 16.5052 7.2558 16.4235 6.94213 16.2265C6.30847 15.6971 6.62931 14.3817 7.46751 14.3335ZM9.49682 13.9205C9.41586 13.8369 9.31849 13.7709 9.21083 13.7267C9.10316 13.6826 8.98753 13.6611 8.87118 13.6638C9.5992 12.1514 9.93043 10.4787 9.8337 8.80306C9.82811 8.728 9.79329 8.65814 9.73672 8.60849C9.68015 8.55885 9.60635 8.53339 9.5312 8.53759C9.45606 8.5418 9.38556 8.57533 9.33488 8.63097C9.2842 8.68662 9.25738 8.75993 9.2602 8.83514C9.31782 9.81351 9.22036 10.7948 8.97145 11.7428C8.79161 12.4462 8.52345 13.124 8.17335 13.76C8.02898 13.7681 7.74423 13.756 7.59183 13.76C7.33055 13.7453 7.07047 13.8051 6.84187 13.9325V6.6414C6.84187 6.59327 12.2801 6.6414 12.2921 6.62535C12.3603 8.55842 11.5061 12.0756 9.49682 13.9205ZM16.1342 8.53435C16.0582 8.52964 15.9834 8.55529 15.9262 8.60567C15.8691 8.65604 15.8343 8.72703 15.8294 8.80306C15.7495 10.475 16.0713 12.1418 16.7679 13.6638C16.6556 13.6623 16.5443 13.684 16.4408 13.7275C16.3373 13.771 16.2438 13.8353 16.1663 13.9165C14.153 12.0756 13.3028 8.5504 13.375 6.62535C13.387 6.64541 18.8253 6.58525 18.8212 6.6414V13.9325C18.6511 13.8369 18.4623 13.7795 18.2678 13.7641C18.1114 13.76 17.7865 13.756 17.6261 13.76C17.586 13.76 17.5379 13.76 17.4898 13.756C17.1373 13.1225 16.869 12.4457 16.6917 11.7428C16.4427 10.7948 16.3453 9.81351 16.4029 8.83514C16.4068 8.7597 16.3808 8.68576 16.3305 8.62942C16.2802 8.57309 16.2096 8.53892 16.1342 8.53435ZM18.8212 20.4977C18.8209 20.5742 18.7904 20.6474 18.7363 20.7015C18.6822 20.7556 18.609 20.7861 18.5325 20.7864H14.6343C14.5929 20.7862 14.5521 20.7769 14.5146 20.7594C14.4771 20.7418 14.4439 20.7163 14.4172 20.6847C14.3905 20.6531 14.371 20.616 14.36 20.5761C14.349 20.5362 14.3468 20.4944 14.3535 20.4536C14.5666 18.9255 15.2426 17.4993 16.2906 16.3669C16.4643 16.5603 16.6759 16.7159 16.9122 16.8241C16.5568 17.5632 16.4138 18.3866 16.4992 19.2023C16.5067 19.2773 16.5436 19.3463 16.6018 19.3942C16.6599 19.4422 16.7347 19.4652 16.8097 19.4583C16.8848 19.4515 16.9541 19.4152 17.0026 19.3575C17.0511 19.2998 17.0748 19.2253 17.0687 19.1502C16.9912 18.4116 17.1291 17.6665 17.4657 17.0045C17.9255 17.0959 18.4026 17.031 18.8212 16.8201V20.4977ZM18.8212 16.1343C18.5444 16.3516 18.2026 16.4697 17.8507 16.4697C17.4988 16.4697 17.157 16.3516 16.8802 16.1343C16.6202 15.9162 16.4471 15.612 16.3927 15.277C16.3382 14.9421 16.4059 14.5987 16.5834 14.3095C16.7438 14.1531 16.9604 14.2975 17.1529 14.3175C17.4817 14.3496 17.9068 14.3215 18.2477 14.3376C19.0057 14.4258 19.3025 15.5648 18.8212 16.1343ZM19.9763 6.64541C19.7929 6.64503 19.6141 6.58772 19.4647 6.4814C19.3153 6.37508 19.2026 6.22499 19.1421 6.05185H6.52103C6.45315 6.24988 6.31722 6.4174 6.13742 6.52462C5.95763 6.63184 5.74563 6.6718 5.53914 6.63739C5.33265 6.60298 5.14506 6.49644 5.00975 6.33671C4.87444 6.17699 4.80018 5.97444 4.80018 5.7651C4.80018 5.55576 4.87444 5.35322 5.00975 5.19349C5.14506 5.03376 5.33265 4.92722 5.53914 4.89281C5.74563 4.8584 5.95763 4.89836 6.13742 5.00558C6.31722 5.1128 6.45315 5.28032 6.52103 5.47835H19.1421C19.1944 5.32481 19.2881 5.18868 19.4128 5.08492C19.5375 4.98115 19.6883 4.91377 19.8488 4.89017C20.0093 4.86657 20.1732 4.88768 20.3225 4.95116C20.4718 5.01465 20.6007 5.11806 20.695 5.25003C20.7893 5.382 20.8454 5.53742 20.8572 5.69921C20.8689 5.861 20.8358 6.02289 20.7616 6.1671C20.6873 6.31131 20.5747 6.43226 20.4361 6.51664C20.2976 6.60102 20.1385 6.64557 19.9763 6.64541Z" fill="url(#paint0_linear_185_13)"/>
<defs>
<linearGradient id="paint0_linear_185_13" x1="12.8336" y1="-5.59794" x2="31.4668" y2="21.3253" gradientUnits="userSpaceOnUse">
<stop stop-color="#FFD769"/>
<stop offset="1" stop-color="#EDA41B"/>
</linearGradient>
</defs>
</svg>
