<svg width="23" height="23" viewBox="0 0 23 23" fill="none" xmlns="http://www.w3.org/2000/svg">
<path d="M22.1438 3.44271C21.9731 3.30635 21.7488 3.25516 21.5356 3.30345C21.5293 3.30485 20.8945 3.44595 19.8998 3.44595C17.8892 3.44595 14.918 2.90123 12.1814 0.306296C11.9042 0.043385 11.4697 0.0434334 11.1925 0.306296C8.45602 2.90113 5.48477 3.4459 3.4741 3.44595C2.47925 3.44595 1.84472 3.3049 1.84027 3.30388C1.62681 3.25439 1.40233 3.30495 1.23078 3.44126C1.05918 3.57762 0.959167 3.7848 0.959167 4.00396C0.959167 11.0539 3.01755 15.3959 4.74438 17.797C6.72643 20.553 9.38672 22.2651 11.687 22.2651C13.9872 22.2651 16.6475 20.553 18.6296 17.797C20.3564 15.3959 22.4148 11.0539 22.4148 4.00396C22.4148 3.78553 22.3145 3.57912 22.1438 3.44271ZM15.1505 14.8554C14.5629 15.6724 13.8811 16.3342 13.1787 16.769C12.6409 17.1019 12.0972 17.2929 11.687 17.2929C11.6765 17.2929 11.6656 17.2922 11.655 17.292V5.54189C11.6657 5.53406 11.6763 5.52666 11.687 5.51878C13.8908 7.15416 16.1526 7.48315 17.4863 7.50925C17.2352 11.2032 16.1114 13.5192 15.1505 14.8554Z" fill="url(#paint0_linear_186_56)"/>
<defs>
<linearGradient id="paint0_linear_186_56" x1="11.687" y1="-4.72302" x2="27.9468" y2="18.0283" gradientUnits="userSpaceOnUse">
<stop stop-color="#FFD769"/>
<stop offset="1" stop-color="#EDA41B"/>
</linearGradient>
</defs>
</svg>
