<svg width="27" height="27" viewBox="0 0 27 27" fill="none" xmlns="http://www.w3.org/2000/svg">
<path d="M15.0691 23.9884L26.5184 21.4143L26.9233 23.2153L15.474 25.7894L15.0691 23.9884Z" fill="url(#paint0_linear_182_26)"/>
<path d="M23.1446 2.74792C21.9052 2.5851 21.3774 3.33446 21.3315 3.97543L20.5361 8.88436C20.5361 8.88436 19.5532 1.97868 19.5397 1.91865C19.4047 1.31832 18.8345 0.752788 17.9908 0.94246C17.5087 1.05084 16.9331 1.30639 16.9683 2.30757L17.5231 9.56177L15.2864 1.86584C15.0507 1.09895 14.2861 0.514033 13.3822 0.717254C12.2975 0.961118 12.0044 1.90997 12.1664 2.63037L13.9075 10.3746L11.0648 4.77006C10.8363 4.31689 10.2058 3.76491 9.29562 4.22181C8.67326 4.55094 8.38641 5.24611 8.6554 5.87938L12.442 15.1189L7.57784 14.3204C7.06877 14.3088 6.5004 14.878 6.33408 15.5461C6.12099 16.2878 6.41697 17.0411 7.38208 17.3917L9.96887 18.1976L14.5292 21.5871L14.7992 22.7877L26.2485 20.2136L24.3589 11.809L24.2789 4.13266C24.2645 3.50523 23.8615 2.83902 23.1446 2.74792Z" fill="url(#paint1_linear_182_26)"/>
<path d="M8.72438 3.08889C8.89166 2.98821 9.61477 2.82564 9.73529 2.79854C9.30529 2.01227 8.35368 1.72167 7.55054 2.09144C6.92818 2.42057 6.59458 3.18932 6.74305 3.84969L8.34921 10.9936L5.50651 5.38905C5.17726 4.76933 4.40643 4.43809 3.72381 4.78077C2.93417 5.21057 2.8416 5.92513 3.08359 6.43833L6.04968 13.718C6.63155 13.2088 7.22065 13.0133 7.74321 13.085L10.4163 13.43L7.47721 6.2704C7.01299 5.05035 7.52642 3.67356 8.72438 3.08889Z" fill="url(#paint2_linear_182_26)"/>
<path d="M6.93518 18.5013C5.68854 18.0247 4.9428 16.6788 5.15493 15.3697L2.01953 14.9394C1.1759 15.1291 0.601256 15.9521 0.803714 16.8525C0.925188 17.3928 1.2742 17.8189 1.82376 18.0107L4.41056 18.8166L8.97092 22.2061L9.24086 23.4067L13.459 22.4584L9.40145 19.3343L6.93518 18.5013Z" fill="url(#paint3_linear_182_26)"/>
<path d="M9.51081 24.6074L9.91572 26.4084L14.1339 25.46L13.729 23.659L9.51081 24.6074Z" fill="url(#paint4_linear_182_26)"/>
<defs>
<linearGradient id="paint0_linear_182_26" x1="9.31249" y1="-3.93848" x2="32.6094" y2="18.1607" gradientUnits="userSpaceOnUse">
<stop stop-color="#FFD769"/>
<stop offset="1" stop-color="#EDA41B"/>
</linearGradient>
<linearGradient id="paint1_linear_182_26" x1="9.31249" y1="-3.93848" x2="32.6094" y2="18.1607" gradientUnits="userSpaceOnUse">
<stop stop-color="#FFD769"/>
<stop offset="1" stop-color="#EDA41B"/>
</linearGradient>
<linearGradient id="paint2_linear_182_26" x1="9.31249" y1="-3.93848" x2="32.6094" y2="18.1607" gradientUnits="userSpaceOnUse">
<stop stop-color="#FFD769"/>
<stop offset="1" stop-color="#EDA41B"/>
</linearGradient>
<linearGradient id="paint3_linear_182_26" x1="9.31249" y1="-3.93848" x2="32.6094" y2="18.1607" gradientUnits="userSpaceOnUse">
<stop stop-color="#FFD769"/>
<stop offset="1" stop-color="#EDA41B"/>
</linearGradient>
<linearGradient id="paint4_linear_182_26" x1="9.31249" y1="-3.93848" x2="32.6094" y2="18.1607" gradientUnits="userSpaceOnUse">
<stop stop-color="#FFD769"/>
<stop offset="1" stop-color="#EDA41B"/>
</linearGradient>
</defs>
</svg>
