<svg width="29" height="30" viewBox="0 0 29 30" fill="none" xmlns="http://www.w3.org/2000/svg">
<path d="M25.0101 18.3768C24.311 18.8107 23.648 19.1482 23.0574 19.3893C22.6475 19.5701 22.2015 19.6545 21.7676 19.6545C21.3336 19.6545 20.8876 19.5701 20.4778 19.3893C19.4291 18.9553 18.1514 18.2321 16.9098 17.2437H5.3982L7.1822 13.1454C7.37506 12.7115 7.809 12.4222 8.27911 12.4222H13.0284C12.6909 11.6749 12.4257 10.8672 12.2811 10.0114H8.27911C6.84468 10.0114 5.54285 10.8672 4.96425 12.1811L2.57755 17.6656C2.5655 17.6897 2.57755 17.7138 2.5655 17.75C1.09491 18.4973 0.0703125 20.004 0.0703125 21.7639V26.284C0.0703125 27.9475 1.42036 29.2975 3.08382 29.2975C4.74728 29.2975 6.09733 27.9475 6.09733 26.284V25.6814H20.5622V26.284C20.5622 27.9475 21.9122 29.2975 23.5757 29.2975C25.2391 29.2975 26.5892 27.9475 26.5892 26.284V21.7639C26.5892 20.4018 25.9744 19.1844 25.0101 18.3768ZM7.30274 23.2706H4.89193C4.22896 23.2706 3.68652 22.7282 3.68652 22.0652C3.68652 21.4023 4.22896 20.8598 4.89193 20.8598H7.30274C7.96571 20.8598 8.50814 21.4023 8.50814 22.0652C8.50814 22.7282 7.96571 23.2706 7.30274 23.2706ZM21.7676 23.2706H19.3568C18.6938 23.2706 18.1514 22.7282 18.1514 22.0652C18.1514 21.4023 18.6938 20.8598 19.3568 20.8598H21.7676C22.4306 20.8598 22.973 21.4023 22.973 22.0652C22.973 22.7282 22.4306 23.2706 21.7676 23.2706Z" fill="url(#paint0_linear_182_16)"/>
<path d="M28.3865 2.56942L22.0581 0.416616C21.87 0.351525 21.6651 0.351525 21.4771 0.416616L15.1487 2.56942C14.7811 2.69358 14.5352 3.03831 14.5352 3.42524V8.26845C14.5352 14.1796 21.1335 17.0533 21.4144 17.1726C21.641 17.2678 21.8941 17.2678 22.1208 17.1726C22.4016 17.0533 29 14.1796 29 8.26845V3.42524C29 3.03831 28.7541 2.69358 28.3865 2.56942ZM25.7285 7.14022L22.4137 11.359C21.9918 11.8978 21.201 11.9762 20.6827 11.5302L18.5733 9.72214C18.067 9.28941 18.0079 8.52761 18.4431 8.02256C18.8758 7.5175 19.6376 7.45964 20.1415 7.89237L21.2963 8.88199L23.8336 5.65278C24.2447 5.12965 25.0017 5.03683 25.526 5.45028C26.0492 5.8589 26.1408 6.61708 25.7285 7.14022Z" fill="url(#paint1_linear_182_16)"/>
<defs>
<linearGradient id="paint0_linear_182_16" x1="14.5352" y1="-5.94168" x2="35.5368" y2="24.4037" gradientUnits="userSpaceOnUse">
<stop stop-color="#FFD769"/>
<stop offset="1" stop-color="#EDA41B"/>
</linearGradient>
<linearGradient id="paint1_linear_182_16" x1="14.5352" y1="-5.94168" x2="35.5368" y2="24.4037" gradientUnits="userSpaceOnUse">
<stop stop-color="#FFD769"/>
<stop offset="1" stop-color="#EDA41B"/>
</linearGradient>
</defs>
</svg>
