<svg width="24" height="27" viewBox="0 0 24 27" fill="none" xmlns="http://www.w3.org/2000/svg">
<path d="M18.3969 26.605L18.9933 23.9885H6.91816L18.3969 26.605Z" fill="url(#paint0_linear_182_33)"/>
<path d="M21.2773 4.13299V13.9694L23.4087 4.61883L21.2773 4.13299Z" fill="url(#paint1_linear_182_33)"/>
<path d="M0.022522 22.7259H20.0147V0.175659H0.022522V22.7259ZM3.53787 10.3597C3.4451 10.4633 3.31649 10.5166 3.18749 10.5166C3.07621 10.5166 2.96453 10.4774 2.87459 10.3972C2.68101 10.2246 2.66447 9.92738 2.8371 9.73388C3.91212 8.52899 5.87141 7.11209 9.19972 6.90882V5.49507C6.60534 5.6729 5.08511 6.67413 4.25085 7.52934C4.0972 7.68622 3.84557 7.69024 3.68751 7.53619C3.53023 7.38254 3.52701 7.13052 3.68066 6.97285C4.61974 6.00998 6.323 4.88054 9.19964 4.69665V4.53291H10.8871V4.70145C13.715 4.90267 15.3396 6.06078 16.3376 6.95426C16.5013 7.10067 16.515 7.35269 16.3686 7.51635C16.29 7.60424 16.1807 7.64905 16.0719 7.64905C15.9771 7.64905 15.882 7.61558 15.8062 7.54745C14.9054 6.74099 13.4416 5.6974 10.8875 5.49988V6.91363C14.1658 7.13619 16.0356 8.59144 17.1787 9.71041C17.3642 9.89186 17.3674 10.189 17.1864 10.3746C17.0049 10.5604 16.7078 10.5633 16.5222 10.3814C15.496 9.37774 13.8221 8.07536 10.8879 7.85594V9.19873C14.1662 9.4213 16.0359 10.8765 17.179 11.9951C17.3645 12.1766 17.3677 12.4742 17.1867 12.6597C17.0052 12.8451 16.7081 12.8484 16.5225 12.6669C15.4963 11.6632 13.8217 10.3612 10.8882 10.1419V11.4847C14.1665 11.7073 16.0362 13.1625 17.1794 14.2811C17.3648 14.4625 17.3681 14.7602 17.187 14.9456C17.0055 15.1307 16.7084 15.1339 16.5228 14.9529C15.4967 13.9492 13.822 12.6472 10.8885 12.4279V13.8069C13.7547 14.0545 15.395 15.4952 16.4006 16.6061C16.5643 16.7872 16.5502 17.067 16.3696 17.2307C16.1893 17.3945 15.9091 17.3803 15.745 17.1997C14.8522 16.2138 13.4042 14.9396 10.8885 14.6953V17.7413C10.8885 17.7434 10.8889 17.7449 10.8889 17.747C10.8889 17.749 10.8885 17.7506 10.8885 17.7527V17.7652H10.8873C10.8776 18.2228 10.505 18.591 10.0449 18.591C9.58484 18.591 9.21264 18.2224 9.20255 17.7652H9.20098V14.689C6.6433 14.9087 5.14048 16.1321 4.31425 17.1777C4.22675 17.2878 4.09775 17.3459 3.9667 17.3459C3.87117 17.3459 3.77438 17.3145 3.69287 17.2503C3.50133 17.0991 3.46865 16.8209 3.62025 16.629C4.56706 15.4318 6.28724 14.0273 9.20137 13.8011V12.4221C6.22511 12.6189 4.48838 13.8664 3.53961 14.9301C3.44683 15.0338 3.31822 15.087 3.18922 15.087C3.07794 15.087 2.96626 15.0479 2.87632 14.9676C2.68274 14.7951 2.6662 14.4978 2.83884 14.3043C3.91385 13.0994 5.87315 11.6825 9.20145 11.4797V10.1361C6.22322 10.3349 4.48649 11.5824 3.53764 12.6458C3.44486 12.7494 3.31625 12.8027 3.18725 12.8027C3.07597 12.8027 2.96429 12.7631 2.87435 12.6833C2.68077 12.5107 2.66423 12.2135 2.83687 12.02C3.91189 10.8151 5.87118 9.39822 9.19948 9.19534V7.85177C6.22385 8.04874 4.48673 9.29631 3.53787 10.3597Z" fill="url(#paint2_linear_182_33)"/>
<defs>
<linearGradient id="paint0_linear_182_33" x1="11.7156" y1="-5.58849" x2="31.6126" y2="19.8505" gradientUnits="userSpaceOnUse">
<stop stop-color="#FFD769"/>
<stop offset="1" stop-color="#EDA41B"/>
</linearGradient>
<linearGradient id="paint1_linear_182_33" x1="11.7156" y1="-5.58849" x2="31.6126" y2="19.8505" gradientUnits="userSpaceOnUse">
<stop stop-color="#FFD769"/>
<stop offset="1" stop-color="#EDA41B"/>
</linearGradient>
<linearGradient id="paint2_linear_182_33" x1="11.7156" y1="-5.58849" x2="31.6126" y2="19.8505" gradientUnits="userSpaceOnUse">
<stop stop-color="#FFD769"/>
<stop offset="1" stop-color="#EDA41B"/>
</linearGradient>
</defs>
</svg>
