<svg width="23" height="22" viewBox="0 0 23 22" fill="none" xmlns="http://www.w3.org/2000/svg">
<path fill-rule="evenodd" clip-rule="evenodd" d="M2.04825 0.32171L21.8458 20.1192C22.2747 20.5482 22.2747 21.2521 21.8458 21.681C21.6258 21.89 21.3508 22 21.0649 22C20.7789 22 20.5039 21.89 20.284 21.681L18.4142 19.8003H3.46707C1.6523 19.8003 0.167484 18.3154 0.167484 16.5007V7.70178C0.167484 6.01899 1.43232 4.65517 3.04912 4.44619L0.486443 1.88351C0.0574974 1.45457 0.0574974 0.750656 0.486443 0.32171C0.91539 -0.107237 1.6193 -0.107237 2.04825 0.32171ZM3.46707 8.81264C3.46707 9.09861 3.58805 9.38457 3.78603 9.59354C4.20398 10.0005 4.92989 10.0005 5.34783 9.59354C5.54581 9.38457 5.66679 9.09861 5.66679 8.81264C5.66679 8.51568 5.54581 8.22972 5.34783 8.02074C5.13886 7.82277 4.8529 7.70178 4.56693 7.70178C4.28097 7.70178 3.995 7.82277 3.78603 8.02074C3.58805 8.22972 3.46707 8.51568 3.46707 8.81264ZM6.76666 12.1012C6.76666 14.5319 8.73541 16.5007 11.1661 16.5007C12.255 16.5007 13.2558 16.1157 14.0367 15.4338L12.4749 13.872C12.112 14.147 11.65 14.301 11.1661 14.301C9.95625 14.301 8.96638 13.3111 8.96638 12.1012C8.96638 11.6173 9.12036 11.1553 9.39533 10.7924L7.83352 9.23059C7.15161 10.0115 6.76666 11.0124 6.76666 12.1012ZM16.2475 4.4022H18.8651C20.6799 4.4022 22.1647 5.88701 22.1647 7.70178V16.5007C22.1647 16.8306 22.1097 17.1496 22.0217 17.4576L7.08562 2.52143C7.28359 2.32346 7.56955 2.20247 7.86652 2.20247H14.4657C14.8836 2.20247 15.2686 2.43344 15.4446 2.8074L16.2475 4.4022Z" fill="url(#paint0_linear_182_38)"/>
<defs>
<linearGradient id="paint0_linear_182_38" x1="11.1661" y1="-4.79813" x2="27.1364" y2="18.2803" gradientUnits="userSpaceOnUse">
<stop stop-color="#FFD769"/>
<stop offset="1" stop-color="#EDA41B"/>
</linearGradient>
</defs>
</svg>
