<svg width="30" height="21" viewBox="0 0 30 21" fill="none" xmlns="http://www.w3.org/2000/svg">
<path d="M10.3175 4.7342C9.84698 4.7342 9.46487 5.11653 9.46487 5.58679C9.46487 6.05727 9.84698 6.43938 10.3175 6.43938C10.7879 6.43938 11.1701 6.05727 11.1701 5.58679C11.1701 5.11653 10.7879 4.7342 10.3175 4.7342Z" fill="url(#paint0_linear_208_218)"/>
<path d="M19.6959 10.7023H24.8683V12.4075H19.6959V10.7023Z" fill="url(#paint1_linear_208_218)"/>
<path d="M10.3175 0.368896C7.43997 0.368896 5.09957 2.7093 5.09957 5.58679C5.09957 8.46428 7.43997 10.8049 10.3175 10.8049C13.195 10.8049 15.5354 8.46428 15.5354 5.58679C15.5354 2.7093 13.195 0.368896 10.3175 0.368896ZM10.3175 8.14456C8.90714 8.14456 7.7597 6.99733 7.7597 5.58679C7.7597 4.17646 8.90714 3.02902 10.3175 3.02902C11.7278 3.02902 12.8752 4.17646 12.8752 5.58679C12.8752 6.99733 11.7278 8.14456 10.3175 8.14456Z" fill="url(#paint2_linear_208_218)"/>
<path d="M29.1313 5.58679H17.2405C17.2405 9.40434 14.135 12.5101 10.3175 12.5101C6.49991 12.5101 3.39439 9.40434 3.39439 5.58679H1.73473C1.26359 5.58679 0.882141 5.96823 0.882141 6.43938V18.4325C0.882141 18.9038 1.26359 19.2851 1.73473 19.2851H4.34934V20.1376C4.34934 20.609 4.73078 20.9902 5.20193 20.9902C5.67307 20.9902 6.05452 20.609 6.05452 20.1376V19.2851H24.8683V20.1376C24.8683 20.609 25.2498 20.9902 25.7209 20.9902C26.1921 20.9902 26.5735 20.609 26.5735 20.1376V19.2851H29.1313C29.6024 19.2851 29.9839 18.9038 29.9839 18.4325V6.43938C29.9839 5.96823 29.6024 5.58679 29.1313 5.58679ZM6.90711 15.8179C6.43618 15.8179 6.05452 15.4362 6.05452 14.9653C6.05452 14.4943 6.43618 14.1127 6.90711 14.1127C7.37803 14.1127 7.7597 14.4943 7.7597 14.9653C7.7597 15.4362 7.37803 15.8179 6.90711 15.8179ZM10.3175 15.8179C9.84654 15.8179 9.46487 15.4362 9.46487 14.9653C9.46487 14.4943 9.84654 14.1127 10.3175 14.1127C10.7884 14.1127 11.1701 14.4943 11.1701 14.9653C11.1701 15.4362 10.7884 15.8179 10.3175 15.8179ZM13.7278 15.8179C13.2569 15.8179 12.8752 15.4362 12.8752 14.9653C12.8752 14.4943 13.2569 14.1127 13.7278 14.1127C14.1987 14.1127 14.5804 14.4943 14.5804 14.9653C14.5804 15.4362 14.1987 15.8179 13.7278 15.8179ZM26.5735 13.2601C26.5735 13.7315 26.1921 14.1127 25.7209 14.1127H18.8434C18.3722 14.1127 17.9908 13.7315 17.9908 13.2601V9.84973C17.9908 9.37859 18.3722 8.99714 18.8434 8.99714H25.7209C26.1921 8.99714 26.5735 9.37859 26.5735 9.84973V13.2601Z" fill="url(#paint3_linear_208_218)"/>
<defs>
<linearGradient id="paint0_linear_208_218" x1="15.433" y1="-4.12855" x2="28.0801" y2="21.6603" gradientUnits="userSpaceOnUse">
<stop stop-color="#FFD769"/>
<stop offset="1" stop-color="#EDA41B"/>
</linearGradient>
<linearGradient id="paint1_linear_208_218" x1="15.433" y1="-4.12855" x2="28.0801" y2="21.6603" gradientUnits="userSpaceOnUse">
<stop stop-color="#FFD769"/>
<stop offset="1" stop-color="#EDA41B"/>
</linearGradient>
<linearGradient id="paint2_linear_208_218" x1="15.433" y1="-4.12855" x2="28.0801" y2="21.6603" gradientUnits="userSpaceOnUse">
<stop stop-color="#FFD769"/>
<stop offset="1" stop-color="#EDA41B"/>
</linearGradient>
<linearGradient id="paint3_linear_208_218" x1="15.433" y1="-4.12855" x2="28.0801" y2="21.6603" gradientUnits="userSpaceOnUse">
<stop stop-color="#FFD769"/>
<stop offset="1" stop-color="#EDA41B"/>
</linearGradient>
</defs>
</svg>
