<svg width="27" height="32" viewBox="0 0 27 32" fill="none" xmlns="http://www.w3.org/2000/svg">
<path d="M17.5841 17.2261C17.5841 16.7695 17.2229 16.3982 16.7788 16.3982C16.3346 16.3982 15.9734 16.7695 15.9734 17.2261C15.9734 17.6826 16.3346 18.054 16.7788 18.054C17.2229 18.054 17.5841 17.6826 17.5841 17.2261Z" fill="url(#paint0_linear_185_21)"/>
<path d="M12.6946 10.8589C12.6946 11.3154 13.0558 11.6868 13.4999 11.6868C13.944 11.6868 14.3053 11.3154 14.3053 10.8589C14.3053 10.4023 13.944 10.031 13.4999 10.031C13.0558 10.031 12.6946 10.4023 12.6946 10.8589Z" fill="url(#paint1_linear_185_21)"/>
<path d="M11.0265 17.2261C11.0265 16.7695 10.6652 16.3982 10.2211 16.3982C9.77701 16.3982 9.41579 16.7695 9.41579 17.2261C9.41579 17.6826 9.77701 18.054 10.2211 18.054C10.6652 18.054 11.0265 17.6826 11.0265 17.2261Z" fill="url(#paint2_linear_185_21)"/>
<path d="M17.4133 4.8501H14.4086V8.32983C15.4082 8.71069 16.1226 9.70068 16.1226 10.8589C16.1226 12.3455 14.946 13.5549 13.4999 13.5549C12.0539 13.5549 10.8773 12.3455 10.8773 10.8589C10.8773 9.70068 11.5917 8.71069 12.5913 8.32983V4.8501H9.58631C8.39053 6.82617 7.21637 8.15771 4.84786 9.43848V11.6287C5.08797 15.8779 6.69152 19.7495 9.31248 22.6604V19.7549C8.31287 19.3743 7.5985 18.3843 7.5985 17.2261C7.5985 15.7395 8.77503 14.53 10.2211 14.53C11.6672 14.53 12.8437 15.7395 12.8437 17.2261C12.8437 18.3843 12.1294 19.3743 11.1298 19.7549V24.3901C11.7976 24.9333 12.5105 25.4243 13.2658 25.8567L13.4999 25.981L13.7341 25.8567C14.4893 25.4243 15.2023 24.9333 15.8701 24.3901V19.7549C14.8705 19.3743 14.1561 18.3843 14.1561 17.2261C14.1561 15.7395 15.3327 14.53 16.7788 14.53C18.2248 14.53 19.4014 15.7395 19.4014 17.2261C19.4014 18.3843 18.687 19.3743 17.6874 19.7549V22.6604C20.3084 19.7495 21.9119 15.8779 22.152 11.6287V9.43848C19.7835 8.15771 18.6093 6.82617 17.4133 4.8501Z" fill="url(#paint3_linear_185_21)"/>
<path d="M26.3903 6.14014C23.8323 5.22314 21.8105 3.20435 20.8439 0.60083L20.6207 0H6.37921L6.15597 0.60083C5.18938 3.20435 3.16761 5.22314 0.609344 6.14014L-6.10352e-05 6.3584V10.6973C-6.10352e-05 14.9553 1.13848 19.1284 3.29229 22.7654C5.44611 26.4026 8.52923 29.3584 12.2087 31.314L13.4999 32L14.7909 31.3137C18.4704 29.3584 21.5538 26.4026 23.7076 22.7654C25.8614 19.1284 26.9999 14.9553 26.9999 10.6973V6.3584L26.3903 6.14014ZM23.9679 11.7085C23.789 14.9473 22.8783 18.0784 21.3343 20.7629C19.7151 23.5781 17.3879 25.9065 14.6048 27.4963L14.5805 27.5095L13.4999 28.084L12.3951 27.4963C9.61172 25.9067 7.28477 23.5784 5.66555 20.7629C4.12138 18.0784 3.21083 14.9475 3.032 11.7085L3.03058 11.6555V8.28198L3.54 8.02563C6.06596 6.7561 7.0487 5.58398 8.29578 3.43701L8.5601 2.98193H18.4398L18.7041 3.43701C19.9512 5.58398 20.9337 6.75586 23.4599 8.02563L23.9693 8.28198L23.9679 11.7085Z" fill="url(#paint4_linear_185_21)"/>
<defs>
<linearGradient id="paint0_linear_185_21" x1="13.4999" y1="-6.9791" x2="37.8422" y2="22.6975" gradientUnits="userSpaceOnUse">
<stop stop-color="#FFD769"/>
<stop offset="1" stop-color="#EDA41B"/>
</linearGradient>
<linearGradient id="paint1_linear_185_21" x1="13.4999" y1="-6.9791" x2="37.8422" y2="22.6975" gradientUnits="userSpaceOnUse">
<stop stop-color="#FFD769"/>
<stop offset="1" stop-color="#EDA41B"/>
</linearGradient>
<linearGradient id="paint2_linear_185_21" x1="13.4999" y1="-6.9791" x2="37.8422" y2="22.6975" gradientUnits="userSpaceOnUse">
<stop stop-color="#FFD769"/>
<stop offset="1" stop-color="#EDA41B"/>
</linearGradient>
<linearGradient id="paint3_linear_185_21" x1="13.4999" y1="-6.9791" x2="37.8422" y2="22.6975" gradientUnits="userSpaceOnUse">
<stop stop-color="#FFD769"/>
<stop offset="1" stop-color="#EDA41B"/>
</linearGradient>
<linearGradient id="paint4_linear_185_21" x1="13.4999" y1="-6.9791" x2="37.8422" y2="22.6975" gradientUnits="userSpaceOnUse">
<stop stop-color="#FFD769"/>
<stop offset="1" stop-color="#EDA41B"/>
</linearGradient>
</defs>
</svg>
