<svg width="24" height="32" viewBox="0 0 24 32" fill="none" xmlns="http://www.w3.org/2000/svg">
<path d="M14.7496 18.391C14.2576 19.6799 13.2145 20.6961 11.9081 21.1514V22.818C11.9081 26.5943 14.015 30.0551 17.3697 31.7894L17.7769 32L18.1842 31.7894C21.5389 30.0551 23.6458 26.5943 23.6458 22.818V21.1514C22.3397 20.6961 21.2963 19.6799 20.8043 18.391H14.7496ZM21.2067 23.1395L17.07 27.1378L14.2561 24.4806L15.5363 23.1252L17.0549 24.5596L19.911 21.7992L21.2067 23.1395Z" fill="url(#paint0_linear_182_43)"/>
<path d="M10.0439 22.818V19.8271L11.2944 19.3911C12.0847 19.1155 12.7093 18.5088 13.008 17.7263L13.4658 16.5268H18.9157C17.9477 13.9796 15.9285 11.9459 13.3896 10.9605C14.8934 9.8781 15.8746 8.11319 15.8746 6.12339C15.8746 2.83912 13.2026 0.167114 9.91829 0.167114C6.63402 0.167114 3.96202 2.83912 3.96202 6.12339C3.96202 8.11319 4.94295 9.87834 6.44677 10.9605C2.85139 12.3561 0.295715 15.8523 0.295715 19.9347V25.4215H10.3307C10.141 24.5705 10.0439 23.6976 10.0439 22.818Z" fill="url(#paint1_linear_182_43)"/>
<defs>
<linearGradient id="paint0_linear_182_43" x1="17.7769" y1="15.4229" x2="28.0825" y2="28.2659" gradientUnits="userSpaceOnUse">
<stop stop-color="#FFD769"/>
<stop offset="1" stop-color="#EDA41B"/>
</linearGradient>
<linearGradient id="paint1_linear_182_43" x1="9.60573" y1="-5.34079" x2="29.1559" y2="15.4865" gradientUnits="userSpaceOnUse">
<stop stop-color="#FFD769"/>
<stop offset="1" stop-color="#EDA41B"/>
</linearGradient>
</defs>
</svg>
