<svg width="19" height="13" viewBox="0 0 19 13" fill="none" xmlns="http://www.w3.org/2000/svg">
<path d="M18.2506 4.69418H9.79209V3.12049C9.79209 1.50311 7.50837 0.423828 4.89604 0.423828C2.26607 0.423828 0 1.51247 0 3.12046V10.2496C0 11.0471 0.565126 11.7635 1.59129 12.2669C2.48428 12.705 3.6579 12.9463 4.89601 12.9463H7.30099C7.30099 12.6514 7.30099 10.5793 7.30099 10.3042C7.30099 9.97478 7.57642 9.7077 7.91616 9.7077C8.25589 9.7077 8.53132 9.97478 8.53132 10.3042C8.53132 10.5791 8.53132 12.6513 8.53132 12.9463H10.8996C10.8996 12.6514 10.8996 10.5793 10.8996 10.3042C10.8996 9.97478 11.175 9.7077 11.5147 9.7077C11.8545 9.7077 12.1299 9.97478 12.1299 10.3042C12.1299 10.5791 12.1299 12.6513 12.1299 12.9463H14.4981C14.4981 12.6514 14.4981 10.5793 14.4981 10.3042C14.4981 9.97478 14.7736 9.7077 15.1133 9.7077C15.453 9.7077 15.7285 9.97478 15.7285 10.3042C15.7285 10.5791 15.7285 12.6513 15.7285 12.9463H18.2506C18.5903 12.9463 18.8657 12.6792 18.8657 12.3498V5.29074C18.8658 4.96123 18.5904 4.69418 18.2506 4.69418ZM4.89604 4.62404C2.62489 4.62404 1.23037 3.74828 1.23037 3.12046C1.23037 2.49263 2.62489 1.61691 4.89604 1.61691C7.16716 1.61691 8.56172 2.49267 8.56172 3.12049C8.56172 3.74832 7.1672 4.62404 4.89604 4.62404Z" fill="#B8B8B8"/>
</svg>
