<svg width="26" height="32" viewBox="0 0 26 32" fill="none" xmlns="http://www.w3.org/2000/svg">
<path d="M6.43654 22.8022H7.44634C7.72629 22.8022 7.94291 22.7051 8.09622 22.5106C8.24953 22.3162 8.32618 22.0336 8.32618 21.6624C8.32618 21.2771 8.24786 20.9714 8.09123 20.7452C7.93459 20.5155 7.72462 20.3988 7.46134 20.3952H6.43654V22.8022Z" fill="url(#paint0_linear_271_56)"/>
<path d="M12.2654 20.3952V25.522H12.7054C13.1953 25.522 13.5401 25.3858 13.7401 25.1138C13.9401 24.8381 14.0451 24.3644 14.0551 23.6929V22.3516C14.0551 21.6306 13.9601 21.1287 13.7701 20.8459C13.5802 20.5597 13.2569 20.4094 12.8003 20.3952H12.2654Z" fill="url(#paint1_linear_271_56)"/>
<path fill-rule="evenodd" clip-rule="evenodd" d="M25.2094 10.8832L25.1947 10.8399C25.1834 10.8056 25.1721 10.7718 25.1577 10.738C25.0811 10.5744 24.9856 10.4185 24.8511 10.2857L15.4628 1.02266C15.3283 0.889887 15.1702 0.795713 15.0044 0.720065C14.972 0.705182 14.9382 0.694684 14.9039 0.684047C14.8884 0.679246 14.8729 0.674398 14.8573 0.669118C14.7259 0.625891 14.5913 0.598102 14.452 0.590382C14.4362 0.588962 14.4214 0.584593 14.4067 0.580301C14.3896 0.575253 14.3727 0.570312 14.355 0.570312H3.40211C1.67624 0.570312 0.272705 1.95514 0.272705 3.65799V28.3594C0.272705 30.0623 1.67624 31.4471 3.40211 31.4471H22.1785C23.9044 31.4471 25.308 30.0623 25.308 28.3594V11.3772C25.308 11.3597 25.3029 11.3431 25.2978 11.3262C25.2934 11.3118 25.289 11.2971 25.2876 11.2815C25.2798 11.1456 25.2532 11.0128 25.2094 10.8832ZM14.355 3.65799V11.3772H22.1785L14.355 3.65799ZM6.43654 24.1012V26.8156H4.96681V19.0964H7.44634C8.16621 19.0964 8.73944 19.3332 9.16602 19.8069C9.59594 20.2804 9.81082 20.8954 9.81082 21.6518C9.81082 22.4081 9.59927 23.0056 9.17602 23.4437C8.75277 23.882 8.16621 24.1012 7.41636 24.1012H6.43654ZM10.7956 26.8156V19.0964H12.7204C13.5702 19.0964 14.2468 19.3826 14.75 19.9552C15.2565 20.5278 15.5148 21.3124 15.5248 22.3091V23.5604C15.5248 24.5747 15.2715 25.3718 14.765 25.9514C14.2618 26.5275 13.5669 26.8156 12.6803 26.8156H10.7956ZM18.0543 23.6665H20.3389V22.3729H18.0543V20.3952H20.6138V19.0964H16.5846V26.8156H18.0543V23.6665Z" fill="url(#paint2_linear_271_56)"/>
<defs>
<linearGradient id="paint0_linear_271_56" x1="12.7903" y1="-6.16382" x2="36.4437" y2="21.5472" gradientUnits="userSpaceOnUse">
<stop stop-color="#FFD769"/>
<stop offset="1" stop-color="#EDA41B"/>
</linearGradient>
<linearGradient id="paint1_linear_271_56" x1="12.7903" y1="-6.16382" x2="36.4437" y2="21.5472" gradientUnits="userSpaceOnUse">
<stop stop-color="#FFD769"/>
<stop offset="1" stop-color="#EDA41B"/>
</linearGradient>
<linearGradient id="paint2_linear_271_56" x1="12.7903" y1="-6.16382" x2="36.4437" y2="21.5472" gradientUnits="userSpaceOnUse">
<stop stop-color="#FFD769"/>
<stop offset="1" stop-color="#EDA41B"/>
</linearGradient>
</defs>
</svg>
